<svg version="1.2" xmlns="http://www.w3.org/2000/svg" viewBox="0 0 500 108" width="500" height="108">
	<title>sticklogo</title>
	<style>
		.s0 { fill: #d9d9d9 } 
		.s1 { fill: #ff89d2 } 
		.s2 { fill: #2b2b2b } 
	</style>
	<g id="Background">
		<path id="Path 0" class="s0" d="m0-98.5v81.5h500v-163h-500zm0 322.5v96h500v-192h-500z"/>
		<path id="Path 1" fill-rule="evenodd" class="s1" d="m141.3 7c0.7 0 1.6 0.5 2.2 1.1 0.7 0.8 1.6 0.8 3.2 0 1.3-0.6 2.6-1.1 3-1.1 0.5 0 0.1 0.4-0.7 1-0.8 0.5-1.3 1.1-1 1.4 0.3 0.3 2.1 0.1 4-0.4 3.2-0.8 3.7-0.6 8.6 4.9l30.5-0.4c23.8-0.3 30.6-0.7 31.1-1.7 0.6-1 3.4-1.1 14-0.5 7.3 0.4 16.4 1.2 20.3 1.7 3.9 0.5 10.4 1.2 14.5 1.6 4.1 0.3 9.5 0.8 12 1 2.5 0.2 9.2 0.6 15 0.8 5.8 0.2 15.4 0.7 21.5 1 6 0.3 16.4 1.5 23 2.6 6.6 1.2 13.4 2.4 15 2.6 1.6 0.2 3.7 0.5 4.5 0.7 0.8 0.2 3.1 1 5 1.9 1.9 0.9 4.3 2.2 5.3 2.9 1.7 1.3 0.8 1.9-9.5 7.2-6.2 3.1-11.5 5.7-11.8 5.7-0.3 0-0.9-1.9-1.4-4.2-0.5-2.4-0.9-5.4-0.8-6.8 0.1-1.4-0.3-3.1-1-3.8-0.7-0.7-2.3-1.3-3.6-1.2-1.3 0-2.8 1.1-3.8 2.7-1.4 2.4-1.5 4.7-0.9 15.3 0.5 10 0.4 12.6-0.7 13.2-0.7 0.3-1.8 0.4-2.3 0.2-0.6-0.2-1.1-2.5-1.2-5.2-0.1-2.6-0.9-8.3-1.8-12.7-0.8-4.4-1.5-8.1-1.5-8.3 0-0.1-0.7 0-1.5 0.3-0.9 0.3-1.7-0.3-2-1.5-0.3-1.1-1.3-2-2.3-2-0.9-0.1-2.5 0.7-3.4 1.7-1.6 1.7-1.6 2.3 0.2 11.3 1.1 5.2 2 10.2 2 11q0 1.5-0.9 0.5c-0.5-0.6-3.2-5.1-6.1-10-2.8-4.9-6.3-10.2-7.8-11.8-1.5-1.5-3.7-2.7-5-2.7-1.2 0-2.7 0.9-3.2 2-0.6 1.1-1 3-1.1 4.2 0 2.2-0.1 2.2-0.9 0.3-0.6-1.4-0.8-0.2-0.8 4 0 4.8 0.2 5.4 0.8 3 0.5-2.1 0.8-0.3 0.9 6 0 4.9-0.2 9.9-0.4 11-0.3 1.1-1.5 2.3-2.8 2.6-2.2 0.5-2.2 0.5-1.9-11.5 0.2-6.7 0-13.8-0.5-16-0.4-2.1-1.6-4.4-2.6-5-1.3-0.8-1.9-0.8-2.5 0-0.4 0.7-1.6 1.3-2.7 1.5-1.8 0.4-2.1 1.5-2.6 10.9-0.4 5.8-0.7 12.4-0.8 14.7-0.1 3.6-0.5 4.4-2.4 4.8-1.2 0.4-3.7 0.7-5.6 0.8-3.3 0.2-3.5 0-4.6-4.3-0.7-2.5-1.5-8.2-1.8-12.8-0.5-5.3-0.4-8 0.3-7.7 0.6 0.3 1-1 1-3 0-2.6-0.6-3.9-2.6-5.3-2.1-1.4-2.9-1.5-5-0.4-1.3 0.6-3.1 2.5-3.9 4.2-0.8 1.7-1.9 6.3-2.5 10.3-0.5 4.4-0.6 9.7 0 13.7 0.5 3.6 0.8 6.5 0.7 6.6-0.1 0.1-1.4 0.4-3 0.8-2.6 0.6-2.7 0.5-2.7-3.4 0-2.2-0.3-4-0.8-4-0.4 0-0.6-4.2-0.5-9.3 0.1-5-0.1-7.6-0.5-5.7-0.6 3.5-0.6 3.5-1.7-6.2h-8c-4.4-0.1-8.6 0.2-9.3 0.6-0.7 0.3-1.2 2.5-1.2 5.1 0 3.1 0.5 4.7 1.5 5 0.8 0.3 3.1 0.5 5 0.5 2.2 0 3.7 0.5 4 1.5 0.3 0.8 0.5 5.2 0.5 9.8 0 5.8-0.4 8.2-1.3 8.3-0.6 0.1-2.9 0.4-5 0.8-3.5 0.6-3.8 0.4-5.3-3.1-0.9-2.1-1.9-6.7-2.2-10.2-0.4-3.4-1.3-6.7-2-7.2-0.6-0.5-2-0.8-2.9-0.7-1 0.2-2.3 1.4-3.1 2.8-0.8 1.5-1.1 4.3-0.8 7 0.2 2.5 1.2 6.4 2 8.8 1.6 4.1 1.6 4.2-0.7 5-1.4 0.6-2.6 0.5-3.3-0.2-0.7-0.6-1-1.4-0.8-1.9 0.2-0.4-0.1-0.7-0.6-0.7-0.6 0-0.8-0.4-0.5-1 0.3-0.6 0-1-0.5-1-0.6 0-0.8-0.4-0.5-1 0.3-0.6 0-1-0.5-1-0.6 0-0.8-0.4-0.5-1 0.3-0.6 0-1-0.5-1-0.6 0-0.8-0.4-0.5-1 0.3-0.6-0.6-2.6-4.5-8l3.2-0.6c1.8-0.4 3.7-0.9 4.3-1.1 0.6-0.3 0.3-0.9-0.5-1.4-0.8-0.5-3.4-0.9-5.8-0.9-2.3 0-4.2-0.4-4.2-1 0-0.6 1.9-2.3 4.2-3.8 2.4-1.6 5.3-4.2 6.5-5.8 2.1-2.7 2.2-3 0.5-4.6-0.9-1-2.2-1.8-2.7-1.8-0.6 0-6.4 2.7-13 6-8.7 4.4-12.3 5.8-13 5-0.6-0.6-1.2-4.1-1.5-7.8-0.5-6.4-0.6-6.7-3.3-7-1.8-0.1-3.4 0.6-4.7 2-1.7 2-2 3.5-1.7 11.3 0.2 7.6 0 8.9-1.3 8.6-0.8-0.2-4.5-0.3-15-0.1l-0.3-9.6c-0.1-7.3-0.6-9.9-1.7-10.7-1.1-0.7-2.9-0.4-6.5 1.3-2.8 1.3-7.3 4.7-10.1 7.5-2.8 2.7-5.9 6.9-7 9.3-1 2.3-2.4 4.2-2.9 4.2-0.6 0-1.3-2.3-1.7-5.2-0.4-3-1.4-6.1-2.5-7.1-1.7-1.7-2-1.8-5.1-0.3-2.2 1.1-3.4 2.6-4 4.7-0.4 1.7-1 3.3-1.5 3.5-0.4 0.2-1.9-1.4-3.5-3.7-2.5-3.8-2.6-4.2-1-5 1-0.5 1.8-1.8 1.8-2.9 0-1.1 0.5-2.3 1.1-2.8 0.6-0.4 0.9-1.6 0.6-2.7-0.4-1.5 1.2-3.6 6.6-8.8 3.9-3.7 7.6-6.7 8.4-6.7 0.9 0 1.1-0.7 0.6-2.3-0.6-2.1-0.5-2.2 4-1.5 2.9 0.5 4.9 0.4 5.2-0.2 0.4-0.6 1.1-1 1.8-1zm11 29c0.4 0 0.5 2.4 0.2 5.2-0.3 2.9-0.6 5.4-0.8 5.5-0.1 0.1-2.1-0.1-4.4-0.5-4.2-0.7-4.2-0.7-2.7-3.2 0.9-1.4 2.8-3.5 4.3-4.7 1.4-1.3 2.9-2.3 3.4-2.3zm222.8 3.1c0.4-0.1 0.4 1.6 0.1 3.6-0.2 2.1-1.2 4.8-3.7 8.2l-5.6-5.4 4.3-3.2c2.4-1.7 4.6-3.2 4.9-3.2zm-63.1 7.9c0.5 0 2.1 1.9 3.5 4.2 2.2 3.9 2.3 4.4 0.7 5-0.9 0.4-2.5 0.7-3.5 0.7-1.4 0.1-1.7-0.8-1.7-4.9 0-2.8 0.4-5 1-5zm41.8 4c0.9 0 3.1 1.3 4.7 3 1.6 1.7 2.4 3 1.7 3-0.6 0-2.6 1.1-4.2 2.5-2.3 1.9-2.8 3-2.4 4.7 0.4 1.3 0.4 2.1 0.1 1.8-0.4-0.3-1.1-3.3-1.7-6.8-0.5-3.4-0.8-6.6-0.5-7.2 0.4-0.6 1.4-1 2.3-1zm-161.1 2.1c0.7 0 3.5 2.5 6.1 5.6 2.7 3.2 5.6 7 6.5 8.5 1.6 2.7 1.6 2.8-0.6 3.3-1.2 0.2-4.6 0.9-7.5 1.5-2.8 0.5-5.7 1-6.2 1-0.6 0-1.4-2.8-2-6.3-0.5-3.4-1.1-7.6-1.2-9.4-0.2-2.4 0.2-3.3 1.7-3.6 1.1-0.3 2.6-0.5 3.2-0.6zm-17 3.9c0.9 0 1.5 2.7 2.2 9.7 0.6 7.1 0.6 10-0.3 10.6q-1.1 0.9 0.4 0.4c0.8-0.3 2.4 0.1 3.5 0.9 1.1 0.8 3.2 1.4 4.7 1.4 1.6 0 3-0.4 3.3-1 0.3-0.6 0.9-0.8 1.5-0.5 0.5 0.3 4.9 1 9.7 1.6 4.9 0.7 11 1.3 13.8 1.4 2.7 0.1 6.6 0.5 8.5 0.8 1.9 0.4 8.8 1.1 15.2 1.7 6.5 0.5 13.3 1.6 15 2.4 1.8 0.8 5.7 2.4 8.6 3.7 3 1.3 6 3.2 6.8 4.1 0.9 1.2 1.1 2.4 0.5 3.5-0.4 1-2.2 2.9-3.8 4.3-1.7 1.4-3.7 2.9-4.6 3.5-1 0.6-1.8 3.1-2.2 6.5-0.3 3-0.8 5.7-1 6-0.3 0.3-1.1-0.1-2-0.8-0.8-0.6-1.2-1.8-0.8-2.5 0.4-0.6 0.6-2.8 0.4-4.7-0.2-1.9-0.5-3.6-0.7-3.8-0.2-0.1-1.8 0.5-3.4 1.3-1.7 0.8-2.9 2.1-2.8 2.8 0.2 0.7 0 1.4-0.5 1.5-0.4 0.1-1.3 0.2-2 0.2-0.6 0-1.2-1.2-1.2-2.7 0-2.4-0.5-2.8-4-3.4-2.2-0.4-5.8-1.4-8-2.3-2.2-0.9-4.8-1.6-5.8-1.6-0.9 0-1.8-0.5-2-1.2-0.1-0.6-4-1.7-8.7-2.4-4.7-0.7-12.1-1.3-16.5-1.4-4.4-0.1-11.8-0.5-16.5-1.1-4.7-0.5-13.5-1.4-19.5-1.9-6.1-0.6-15.5-1.2-21-1.4-5.5-0.2-11.4-0.9-13-1.6-1.7-0.6-4.2-2.3-5.7-3.8-2.4-2.4-2.9-2.5-4.3-1.2-1.4 1.3-1.6 1.3-1.5-0.3 0-0.9 0.6-1.8 1.2-2 0.8-0.2 1.2-1.7 1-3.8-0.2-2.8 0-3.2 1-2.1 0.7 0.7 2.2 1.2 3.3 1.2 1.1 0 3-1 4.2-2 2.1-1.8 2.2-2.5 1.5-7.5-0.5-4.2-0.4-5.5 0.5-5.5 0.7 0 1.6 1 2 2.2 0.4 1.3 2.3 4.1 4.2 6.2 2 2.2 5.4 4.7 7.6 5.7 2.2 1 5.3 1.9 7 1.9 1.6 0 4.7-0.5 6.7-1 2.1-0.6 5.4-2.5 7.5-4.3 2-1.7 4.4-5 5.4-7.2 1-2.2 1.8-5.2 1.7-6.6-0.1-1.4 0.2-2.9 0.7-3.2 0.5-0.4 1.4-0.7 2.2-0.7zm-13.1 2.1c0.6-0.1 0.9 1.1 0.7 2.6-0.2 1.6-1.2 3.9-2.2 5.3-1 1.4-3.5 3.1-5.7 3.9-3.4 1.3-4.3 1.3-7.2 0-1.9-0.8-4-2.3-4.6-3.4-0.7-1.1-1.6-3-2-4.3-0.6-2.1-0.4-2.2 3.4-1.6 2.2 0.3 4.8 0.2 5.7-0.4 1.3-0.7 2.4-0.6 3.8 0.4 1.1 0.8 2.6 1.4 3.2 1.4 0.7 0 1.2-0.6 1.1-1.4-0.1-0.8 0.5-1.7 1.2-1.9 0.8-0.3 2-0.6 2.6-0.6zm182.5 19.9c1.4 0.7 2 2 2 4.3-0.1 1.8 0.3 4.6 0.8 6.2 0.5 1.8 0.5 3.7 0 4.8-0.5 0.9-1.5 1.7-2.2 1.7-0.7 0-1.7-2.8-2.6-7.2-0.8-4-1.1-8.1-0.7-9.1 0.5-1.4 1-1.6 2.7-0.7zm10.3-0.3c0.8 0.4 0.7 0.9-0.2 1.7-0.7 0.6-1.2 2.1-1.2 3.3 0 1.6-0.6 2.3-2 2.3-1.5 0-2.1-0.7-2.2-2.8-0.2-2.2 0.4-3.1 2.2-3.9 1.3-0.6 2.8-0.8 3.4-0.6zm-99 40.5c1.4 0.8 2.1 1.8 1.7 2.6-0.3 0.7-1.3 1.2-2.1 1-0.8-0.2-1.6-1.3-1.8-2.6-0.2-2 0-2.1 2.2-1z"/>
		<path id="Path 2" class="s2" d="m110.5 24.6c-0.5 0.2-9.8 0.7-20.6 1.1-15.2 0.6-20 1.1-21.3 2.3-0.9 0.8-1.7 2.4-1.7 3.5 0 1.1 1.4 3.3 3.2 5 2.7 2.6 3.9 3 9.5 3.2l6.4 0.3c0 32 0.3 35.9 1.5 37.8 0.8 1.2 2.2 2.2 3 2.2 0.8 0 2.6-0.7 4-1.5l2.5-1.5v-37.5c9.7-2.1 13.3-3.1 14.3-3.6 0.9-0.5 1.7-1.7 1.7-2.6 0-1 0.4-2.2 1-2.8 0.6-0.6 0.8-2.2 0.5-3.7-0.3-1.6-1.1-2.8-1.7-2.7-0.7 0-1.8 0.2-2.3 0.5zm-83 2c-0.9 0.8-1.6 2.9-1.6 4.5 0.1 1.9 1.4 4.3 3.9 6.9l3.7 4.1c-5.7-0.1-6.7 0.5-7.4 2.2-0.6 1.3-0.6 4.7-0.1 8.2 0.5 3.3 1.6 9.6 2.5 14 0.9 4.4 2.2 9.5 3 11.3 0.8 1.7 2.2 3.2 3 3.2 0.8 0 2-0.9 2.5-2q1-2 2.8-1.4c0.9 0.4 3.4 1 5.5 1.5 2.2 0.5 5.4 0.5 8 0 2.6-0.6 5.2-2.1 7-4q2.7-3.1 2.7-6.3c0-1.8-0.9-5.1-1.9-7.3-1-2.2-5.4-7.9-9.9-12.8-4.5-4.8-7.9-8.9-7.4-9.2 0.4-0.2 3.2 1 6.2 2.8 4.7 2.8 5.8 3.9 7.5 8.5 1.3 3.4 2.7 5.5 4 5.8 1.1 0.3 2.1 0.4 2.2 0.2 0.2-0.2 0.5-6 0.8-13 0.4-10.5 0.2-13.1-1-14.3-0.8-0.8-2.1-1.5-2.7-1.5-0.7 0-1.9 0.4-2.5 0.8-0.7 0.4-1.6 1.9-2 3.4l-0.8 2.8c-7-4.7-11.9-6.9-15.5-8-3.6-1.1-7.5-2-8.7-2-1.2 0-2.9 0.7-3.8 1.6zm149.3 0.9c-1.6 2.3-1.7 3.9-0.8 18.3 0.5 8.6 1.4 19.1 1.9 23.2 0.8 6 1.4 7.9 3.3 9.3 1.3 1 3.4 1.8 4.8 1.8 1.4 0 3.1-0.7 3.7-1.6 1.1-1.2 1-3.1-0.2-9.7-0.8-4.6-1.6-10.3-1.7-12.8-0.2-3.8 0-4.6 1.7-4.9 1.4-0.2 3.8 1.6 8.3 6.5 3.4 3.8 7.7 9.8 9.5 13.3 1.7 3.5 3.6 6.6 4.2 6.8 0.6 0.3 2 0.3 3.2-0.1 1.7-0.4 2.4-1.5 2.7-3.8 0.2-1.8 0-3.4-0.5-3.5-0.5-0.2-0.7-1-0.4-1.8 0.3-0.8 0-1.5-0.5-1.5-0.6 0-0.8-0.4-0.5-1 0.3-0.6 0-1-0.5-1-0.6 0-0.8-0.4-0.5-1 0.3-0.6 0-1-0.5-1-0.6 0-0.8-0.4-0.5-1 0.3-0.6 0-1-0.5-1-0.6 0-0.8-0.4-0.5-1 0.3-0.6 0-1-0.5-1-0.6 0-0.8-0.4-0.5-1 0.3-0.6-1.3-3.5-3.5-6.5-2.2-3-4-5.9-4-6.5 0-0.6 1.9-2.3 4.2-3.8 2.4-1.6 5.3-4.2 6.5-5.8 2.1-2.7 2.2-3 0.5-4.6-0.9-1-2.2-1.8-2.7-1.8-0.6 0-6.4 2.7-13 6-8.7 4.4-12.3 5.8-13 5-0.6-0.6-1.2-4.1-1.5-7.8-0.5-6.6-0.5-6.7-3.5-7-2.2-0.1-3.4 0.4-4.8 2.3zm163.8 0.3c-1.5 2.3-1.7 4.3-1.1 14.2 0.4 6.3 1.2 16.7 1.8 23 0.9 8.6 1.7 11.9 3 13.3 1 0.9 3 1.7 4.5 1.7 1.6 0 3.6-0.5 4.7-1.2 1.6-1.2 1.7-1.8 0.8-6.3-0.6-2.8-1.6-8.3-2.2-12.3-0.5-3.9-0.8-7.6-0.5-8.2 0.3-0.6 1.4-1 2.5-1 1.3 0 4.4 2.8 8.5 7.8 3.5 4.2 7.7 10.1 9.2 13.1 1.5 3 3.5 5.6 4.3 5.9 0.8 0.2 2.4-0.1 3.5-0.7 1.1-0.6 2.1-2.3 2.2-3.6 0.2-1.4-0.2-2.5-0.7-2.5-0.6 0-0.8-0.7-0.5-1.5 0.3-0.8 0-1.5-0.5-1.5-0.6 0-0.8-0.3-0.5-0.7 0.2-0.5-1.1-4-3.1-7.8-1.9-3.8-5.2-8.6-7.2-10.6l-3.7-3.7c9.1-6 12.6-8.8 13.6-10.2 1.7-2.4 1.7-2.6-0.2-4.3-1-0.9-2.2-1.7-2.7-1.7-0.4 0-6.1 2.7-12.7 6-6.6 3.3-12.2 6.1-12.5 6-0.3 0-0.9-1.9-1.4-4.2-0.5-2.4-0.9-5.4-0.8-6.8 0.1-1.4-0.3-3.1-1-3.8-0.7-0.7-2.3-1.3-3.5-1.2-1.2 0-2.9 1.2-3.8 2.7zm121.4 3.5c-2.2 3.5-4.1 6.4-4.2 6.5-0.1 0.2-5.2-2.2-11.2-5.2-6.1-3-12.2-5.5-13.8-5.5-1.5 0-2.8 0.3-2.8 0.7-0.1 0.5-0.3 2-0.5 3.5-0.3 2 0.3 3.5 1.9 5 1.3 1.3 6.3 4.5 11.1 7.3 4.8 2.7 8.7 5.3 8.6 5.7 0 0.5-1.5 3.8-3.4 7.5-1.9 3.8-3.8 8.4-4.4 10.3-0.5 1.9-0.6 4.2-0.3 5q0.5 1.5-0.7 0.7c-0.8-0.5-1.1 0.1-0.9 2 0.2 1.6 0.6 3.4 1 4 0.4 0.7 1.9 1.3 3.4 1.3 1.6 0.1 3.5-0.7 4.4-1.7 0.9-1 4.3-6.9 7.5-13 3.2-6.2 6.3-11.3 6.9-11.3 0.5 0.1 1.8-0.7 2.8-1.7 1-1 1.7-2.8 1.5-3.9-0.2-1.2 1.7-5.3 4.4-9.5 2.6-4.1 4.8-8.3 4.8-9.4 0-1.1-0.5-2.6-1.2-3.3-0.7-0.7-2.2-1.2-3.4-1.2-1.1 0-2.6 0.6-3.3 1.2-1.1 1-1.4 1-1.7 0-0.2-0.6-0.9-1.2-1.4-1.2-0.6 0-2.9 2.8-5.1 6.2zm-311.4-3.2c-2.2 1.1-5.8 3.4-7.9 5.2-2.2 1.8-5.1 5.1-6.6 7.3-1.5 2.2-3.3 6-3.9 8.5-0.7 2.5-1.5 5.2-1.8 6-0.4 0.8-0.9-2.4-1.2-7.2-0.5-6.9-1-9.2-2.6-10.9-1.9-2-2.2-2-5.3-0.5-2.4 1.2-3.5 2.6-4.3 5.8-0.7 2.8-0.9 8.7-0.5 16.6 0.3 6.7 1.1 13.4 1.7 14.9 0.6 1.6 1.8 3.3 2.7 4 1 0.7 2.6 1.2 3.7 1.2 1.1 0 3-0.9 4.2-1.9 2-1.8 2.2-2.6 1.7-7.8-0.3-3.1-0.8-6.8-1-8.2-0.4-1.6-0.2-2.1 0.4-1.5 0.5 0.6 1.5 2.8 2.3 5 0.7 2.2 2.9 5.8 4.8 7.9 2 2.2 5.4 4.7 7.6 5.7 2.2 1 5.3 1.9 7 1.9 1.6 0 4.7-0.5 6.7-1 2.1-0.6 5.5-2.5 7.5-4.3 2-1.7 4.5-5.2 5.6-7.7 1.1-2.6 2-7 2.1-10.2 0.1-5-0.3-6.1-2.6-8.5-2.3-2.4-3.1-2.6-5-1.7-2.1 1-2.3 1.8-2.3 9.2 0 6.6-0.4 8.6-2.1 10.9-1.1 1.5-3.9 3.5-6.2 4.3-3.7 1.3-4.4 1.3-7.4-0.1-2-0.9-4.1-3.2-5.3-5.5-1.3-2.5-2-5.8-2-9.4 0.1-4.2 0.8-6.8 3-10.9 1.7-2.9 4.2-6.2 5.7-7.2 1.6-1.1 3-1.9 3.3-1.9 0.3 0 0.2 3.9-0.1 8.7-0.4 4.9-0.4 10.5 0 12.5 0.4 2.7 1.4 4.2 3.1 5 1.4 0.7 2.8 0.9 3.2 0.5 0.5-0.5 0.6-8.4 0.5-17.5-0.3-10.8-0.8-17.2-1.5-18-0.7-0.7-1.7-1.3-2.2-1.2-0.6 0-2.8 0.9-5 2zm111 0.5c-1.4 1.4-3 4.4-3.6 6.7-0.6 2.4-1.1 8.1-1.2 12.8 0 5 0.7 10.8 1.6 14.2 1 3.2 2.3 6.1 3 6.5 0.7 0.5 2.3 2.3 3.5 4 1.2 1.8 4.1 4.3 6.4 5.4 3.1 1.6 5.4 2 8.3 1.6 3.1-0.4 5-1.6 8.5-5.4 2.5-2.7 5.1-6.7 5.8-8.8 0.8-2.2 1.6-9.6 1.9-16.5 0.2-6.9 0.1-14.2-0.4-16.4-0.4-2.1-1.6-4.4-2.6-5-1.3-0.8-1.9-0.8-2.5 0-0.4 0.7-1.6 1.3-2.7 1.5-1.9 0.4-2.1 1.6-2.8 16.9-0.6 11.3-1.3 17.2-2.3 18.7-0.8 1.3-2.4 2.3-3.7 2.3-1.2 0-2.7-0.4-3.4-0.8-0.6-0.4-2-4.1-3.1-8.2-1.1-4.1-2.3-11-2.6-15.3-0.4-5-0.2-7.5 0.4-7.2 0.6 0.3 1-1 1-3 0-2.5-0.6-3.9-2.3-5-1.2-0.8-2.8-1.5-3.5-1.5-0.7 0-2.4 1.1-3.7 2.5zm40.4 0.4c-0.6 1.1-1.1 3-1.1 4.3 0.1 2.2 0 2.2-0.8 0.3-0.6-1.4-0.8-0.2-0.8 4 0 4.9 0.2 5.5 0.8 3 0.5-1.8 0.8 3.9 0.8 14.5-0.1 9.6 0.2 19.2 0.5 21.3 0.5 2.5 1.3 3.9 2.7 4.2 1.1 0.3 3.1-0.2 4.5-1 1.9-1.1 2.5-2.4 2.6-5.3 0.1-2 0.1-9 0-15.5-0.1-8.2 0.2-11.6 1-11.5 0.6 0.2 4.3 5.9 8.1 12.8 3.7 6.9 6.8 13.1 6.8 13.7 0 0.7 0.5 2.3 1.1 3.5 0.7 1.3 1.7 2.6 2.3 2.9 0.6 0.4 1.9 0.4 3 0 1-0.3 2.3-1.5 2.9-2.6 0.6-1.2 0.7-5.3 0.3-10.5-0.4-4.7-0.9-11-1.2-14-0.2-3-0.7-7.1-0.9-9-0.3-1.9-1-5.9-1.5-8.8-0.8-3.9-1.4-5.1-2.5-4.7-0.9 0.3-1.7-0.3-2-1.5-0.3-1.1-1.3-2-2.3-2-0.9-0.1-2.5 0.7-3.4 1.7-1.6 1.7-1.6 2.3 0.2 11.3 1.1 5.2 2 10.2 2 11q0 1.5-0.9 0.5c-0.5-0.6-3.2-5.1-6.1-10-2.8-4.9-6.3-10.2-7.8-11.8-1.5-1.5-3.7-2.7-4.9-2.7-1.2 0-2.7 0.9-3.4 1.9zm108.6 1c-3.3 1-7.2 2.1-8.8 2.4-2 0.5-2.7 0.3-2.7-0.8q0-1.5-1.8-0.9c-1.4 0.6-1.5 0.8-0.2 1.4 1.3 0.6 1.2 0.8-0.3 1.4-1 0.4-1.7 0.1-1.7-0.7q0-1.2-1 0.3c-0.5 0.8-1.7 1.5-2.7 1.6-1 0.1-3.3 0.6-5.1 1.3-1.8 0.6-3.8 2.3-4.6 3.8q-1.4 2.8-0.5 5.3c0.5 1.4 1.5 9.1 2.4 17.3 0.9 8.7 2.1 15.7 3 17.2 0.8 1.4 2.4 2.5 3.5 2.5 1.1 0 2.2-0.4 2.5-1 0.3-0.6 1.1-0.8 1.7-0.5 0.7 0.4 4.7-0.7 8.8-2.4 4.1-1.6 11.3-3.9 16-5.1 4.7-1.2 9.1-2.7 9.9-3.3 0.9-0.8 1.1-2.4 0.7-5.2-0.3-2.2-1.4-5.1-2.3-6.4-1.6-2.1-2.3-2.3-5.8-1.8-2.2 0.3-9.4 2.7-16 5.2-6.6 2.5-12.1 4.5-12.3 4.5-0.1 0-0.2-1.1-0.2-2.5 0-1.9 1-3.1 4.2-4.9 2.4-1.3 8.8-3.3 14.3-4.5 5.5-1.3 10.7-2.6 11.5-3 0.8-0.5 1.6-1.8 1.7-3 0.2-1.1-0.8-3.3-2.1-4.8l-2.4-2.8c-9.8 2.1-16.1 4-20.2 5.6-5.8 2.3-7.7 2.7-8.2 1.7-0.5-0.8 0-1.8 1-2.6 0.9-0.6 6.2-2.6 11.7-4.3 5.5-1.7 11.8-3.6 14-4.3 2.6-0.8 4.1-1.9 4.3-3.2 0.2-1-0.3-2.7-1.2-3.6-0.9-1-2.4-1.8-3.4-1.7-0.9 0-4.4 0.8-7.7 1.8zm-179.8 4.5c-0.6 0.6-1 2.9-0.9 5.3 0.1 2.8 0.7 4.5 1.7 4.8 0.8 0.3 3.1 0.5 5 0.5 2.2 0 3.7 0.5 4 1.5 0.3 0.8 0.5 5.2 0.5 9.8 0.1 6.4-0.3 8.7-1.7 10.6-1.4 1.9-2.4 2.2-4.6 1.7-1.9-0.4-3.3-1.8-4.7-4.8-1.1-2.4-2.3-7.4-2.7-11.2-0.6-4.9-1.3-7.2-2.6-8-1.1-0.7-2.2-0.8-3.3-0.1-1 0.6-2.1 2.3-2.7 4-0.7 2.1-0.6 4.8 0.2 9 0.7 3.3 2.5 8.2 3.9 10.9 1.5 2.7 4.2 6.1 6.1 7.5 2.6 1.9 4.9 2.7 9 2.9 4.7 0.3 6.1 0 8.4-2 1.6-1.2 2.6-2.9 2.3-3.6-0.4-0.7-0.2-0.9 0.6-0.5 0.9 0.6 1 0.3 0.5-1-0.4-0.9-0.3-1.7 0.3-1.7 0.5 0 0.8-0.9 0.5-2-0.3-1.1-0.1-2 0.5-2 0.5 0 1-2.5 1-5.5 0-3-0.3-5.5-0.8-5.5-0.4 0-0.6-4.2-0.5-9.3 0.1-5-0.1-7.6-0.5-5.7-0.6 3.5-0.6 3.5-1.1-1.3l-0.6-4.9c-12.9-0.2-17.1 0.1-17.8 0.6zm-54.4 77.5c-0.5 0.3-1.2 1.3-1.5 2.1-0.3 0.8-0.1 2.5 0.3 3.8 0.7 1.7 1.7 2.2 4.4 2.2 2.8 0 3.5-0.4 3.5-2 0-1.1-0.5-2-1-2-0.6 0-1 0.4-1 1 0 0.6-0.9 1-2 1-1.1 0-2.2-0.4-2.5-1-0.3-0.6-0.3-1.7 0-2.5 0.3-0.8 1.5-1.5 2.8-1.5 1.3 0 2.2-0.3 1.9-0.7-0.2-0.5-1.2-0.8-2.2-0.9-1 0-2.2 0.2-2.7 0.5zm29.3 0.6c-0.4 0.9 0.3 2.1 1.9 3 1.4 0.8 2.3 1.9 2 2.5-0.3 0.6-1.2 0.8-2 0.5-0.8-0.3-1.5-0.1-1.5 0.5 0 0.6 1.1 1 2.5 1 1.5 0 2.8-0.7 3.2-1.7 0.4-1.2-0.1-2.3-1.3-3.1-1-0.7-1.9-2-1.9-2.8 0.1-0.8-0.5-1.4-1.1-1.4-0.7 0-1.5 0.7-1.8 1.5zm26.1 0.9c-0.6 1.4-0.5 2.9 0.2 4.4 0.7 1.4 2 2.2 3.6 2.2 1.4 0 2.3-0.4 2-1-0.3-0.6-1-0.8-1.5-0.5-0.6 0.3-1.5-0.2-2-1-0.6-0.8-0.8-2.2-0.5-3 0.3-0.9 1.4-1.4 3-1.2 1.5 0.3 2.3 0 2-0.7-0.3-0.6-1.7-1.1-3.2-1.2-1.7 0-3 0.7-3.6 2zm23.7-0.8c-0.3 1 0.1 1.2 1.3 0.5 1-0.4 2.4-0.7 3-0.5 0.7 0.2 1.3 1.5 1.3 2.9 0 1.4-0.6 2.7-1.3 2.9-0.6 0.2-2-0.1-3-0.5-1.2-0.6-1.6-0.5-1.4 0.3 0.2 0.7 1.4 1.4 2.8 1.6 1.3 0.2 2.8-0.2 3.4-0.8 0.5-0.6 1-2.2 1-3.4 0-1.3-0.5-2.7-1-3.2-0.6-0.5-2-1-3.3-1-1.3-0.1-2.5 0.5-2.8 1.2zm24.3 2.4c-1.1 2.5-1.3 4.2-0.7 4.5 0.5 0.3 1 0.1 1-0.5 0-0.6 0.9-1 2-1 1.1 0 2.2 0.6 2.4 1.2 0.2 0.7 0.7 1 1.2 0.6 0.5-0.5 0.2-2.4-0.8-4.5-0.9-2.1-2-3.9-2.5-4.1-0.5-0.1-1.7 1.6-2.6 3.8zm12.7-1.3c-0.6 2.7-0.7 2.7-2 0.8-0.8-1.1-1.5-1.8-1.7-1.5-0.2 0.3 0 2 0.5 3.7 0.4 1.9 1.3 3.2 2 3 0.7-0.2 1.4-1.3 1.5-2.5 0.2-1.2 0.7-2 1.3-1.7 0.5 0.3 1 1.4 1 2.5 0 1.1 0.7 2 1.5 2 0.9 0 1.9-1.6 2.5-4q1-4 0-4c-0.6 0-1.3 1.2-1.7 2.7l-0.7 2.8c-1.2-5-2-6.5-2.6-6.5-0.5 0-1.3 1.2-1.6 2.7zm17.9-0.9c-0.4 1.1 0.3 2.4 1.8 3.5l2.4 1.8c-3.5-0.1-4.3 0.3-4 0.9 0.3 0.6 1.4 1 2.5 1 1.1 0 2.3-0.7 2.7-1.6 0.6-1.1 0-2.2-1.7-3.6-1.5-1.2-1.8-1.8-0.8-1.4 1.1 0.4 1.8 0.1 1.7-0.7 0-0.7-0.9-1.3-2.1-1.4-1.1-0.1-2.2 0.6-2.5 1.5zm9.1-0.2c-0.3 1 0.1 1.2 1.3 0.5 1-0.4 2.4-0.7 3-0.5 0.7 0.2 1.3 1.5 1.3 2.9 0 1.4-0.6 2.7-1.3 2.9-0.6 0.2-2-0.1-3-0.5-1.2-0.6-1.6-0.5-1.4 0.3 0.2 0.7 1.4 1.4 2.8 1.6 1.3 0.2 2.8-0.2 3.4-0.8 0.5-0.6 1-2.2 1-3.4 0-1.3-0.5-2.7-1-3.2-0.6-0.5-2-1-3.3-1-1.3-0.1-2.5 0.5-2.8 1.2zm10.1-0.1c-0.3 0.8 0.6 2.7 2 4.3 1.4 1.5 2.7 2.5 2.9 2.2 0.2-0.3 0.8-1.4 1.4-2.5 1.1-1.9 1.1-1.8 1.2 0.7 0 1.6 0.4 2.8 1 2.8 0.5 0 1-2 1-4.5 0-2.9-0.4-4.5-1.3-4.5-0.6 0-1.8 1.2-2.5 2.7l-1.4 2.8c-2.2-4.3-3-5.5-3.3-5.5-0.3 0-0.8 0.7-1 1.5zm-144.5 3.5c0 3.9 0.1 4 3.2 3.9q3.3-0.2 1-0.5c-1.2-0.2-2.2-1.1-2.2-1.9 0-0.8 0.8-1.7 1.7-1.9 1.7-0.3 1.7-0.4 0-0.5-1-0.1-1.5-0.7-1.2-1.6 0.3-0.9-0.1-1.5-1-1.5-1.1 0-1.5 1.1-1.5 4zm30.7 0c0.2 2.2 0.7 4 1.3 4 0.5 0 1-1.8 1-4 0-2.5-0.5-4-1.3-4q-1.2 0-1 4zm6.9-3c-0.4 0.8-0.6 2.6-0.4 4 0.2 2 0.8 2.5 3.3 2.5 2.8 0 3-0.3 3.1-3.8 0.1-2-0.2-3.7-0.7-3.7-0.5 0-0.9 1.4-0.9 3q0 3-1.5 3c-1 0-1.6-1.2-1.8-3.3-0.2-2.2-0.5-2.7-1.1-1.7zm18.4 3c0 2.2 0.4 4 1 4 0.5 0 1-0.7 1-1.5 0-0.8 0.4-1.5 1-1.5 0.5 0 1.4 0.8 1.9 1.7 0.5 1 1.2 1.6 1.4 1.3 0.3-0.3 0-2.2-0.6-4.3-0.9-2.8-1.7-3.7-3.5-3.7-1.9 0-2.2 0.5-2.2 4zm30-2.5c0 0.8-0.7 1.7-1.5 2-1.2 0.4-1.3 0.8-0.3 2.5 0.7 1.1 1.9 2 2.5 2 0.8 0 1.3-1.5 1.3-4 0-2.2-0.5-4-1-4-0.6 0-1 0.7-1 1.5zm31 2.5c0 3.7 0.2 4 2.7 3.9 1.6-0.1 2-0.3 1-0.5-0.9-0.2-1.7-1.1-1.7-1.9 0-0.8 0.8-1.7 1.7-1.9 1.7-0.3 1.7-0.4 0-0.5-0.9 0-1.7-0.8-1.7-1.6 0-0.8-0.5-1.5-1-1.5-0.6 0-1 1.8-1 4z"/>
		<path id="Path 3" class="s0" d="m405.5 29.7c-3.8 0.9-6.8 2-6.7 2.4 0.1 0.5 1 0.7 2 0.4 0.9-0.2 3.7-0.9 6.2-1.6 2.5-0.6 4.9-1.5 5.3-2 0.3-0.5 0.5-0.9 0.4-0.8-0.1 0.1-3.3 0.8-7.2 1.6zm-361.8 10c-0.3 0.4 3.1 4.6 7.6 9.3 6.9 7.3 7.9 8.1 7.3 5.5-0.4-1.7-1.5-4.5-2.4-6.4-1.1-2.2-3.5-4.5-6.8-6.3-2.8-1.6-5.4-2.5-5.7-2.1zm98.3 8.3c-0.5 1.1-1.3 4.1-1.6 6.8-0.6 3.9-0.4 4.9 1.2 6 1.1 0.7 3.2 1.2 4.9 1.2 1.7 0 3.7-0.5 4.6-1.2 1.1-1 1.4-2.8 1.2-7.5-0.3-5.6-0.6-6.4-2.5-6.8-1.3-0.3-3.3-0.5-4.5-0.5-1.2 0-2.7 0.9-3.3 2zm63.5 0c1.5 1.6 2.7 1.9 5 1.4 1.7-0.3 3.4-0.9 4-1.1 0.6-0.3 0.3-0.9-0.5-1.4-0.8-0.5-3.5-0.9-6-0.9l-4.5-0.1zm-46.1 3.8c0.3 2.6 0.6 5.5 0.6 6.5 0 1.2 0.6 1.6 2 1.2 1.8-0.4 2-1.2 1.8-6.5-0.3-5.6-0.5-6-2.7-6-2.3 0-2.4 0.2-1.7 4.8zm11.8-3.1c1 1 1.8 2.6 1.8 3.6 0 0.9 0.2 2.4 0.5 3.2 0.3 0.8 1.2 1.5 2 1.5 0.9 0 1.3-0.6 1-1.5-0.3-0.8-0.5-3-0.5-4.8 0-3-0.3-3.3-3.2-3.5-3.2-0.3-3.2-0.2-1.6 1.5zm-42.2 4.1c0 2.2 0.3 3.3 0.9 2.7 0.4-0.5 1-2.2 1.2-3.7 0.3-1.8-0.1-2.8-0.8-2.8-0.8 0-1.3 1.4-1.3 3.8zm58.5-0.8c-0.3 0.6-0.1 1.2 0.5 1.5 0.6 0.3 1.9 0.3 3 0 1.1-0.3 1.8-0.9 1.5-1.5-0.3-0.5-1.4-1-2.5-1-1 0-2.1 0.5-2.5 1zm94.4 7.5c-0.2 0.2-2.2 0.6-4.4 0.8-3.6 0.3-4 0.6-3.7 2.8 0.2 1.3 0.8 2.7 1.5 3.2 0.7 0.4 2.2 0.7 3.4 0.7 1.3 0 3-1 3.8-2.2 0.8-1.3 1.5-3.1 1.5-4 0-1-0.4-1.8-0.8-1.8-0.5 0-1.1 0.2-1.3 0.5zm-46.5 5.8c-2.1 0.5-3.7 1.3-3.6 1.8 0.1 0.5 1.4 1.2 3 1.5 1.7 0.4 3.2 0.1 4-0.7 0.8-0.8 1.2-1.9 0.9-2.4q-0.4-1.1-4.3-0.2zm84.4 48.5l-2.3 1.5c3.5 2.9 5.2 3.5 6 3.2 0.8-0.3 1.5-1.6 1.5-2.9-0.1-1.3-0.7-2.6-1.5-2.9-0.8-0.3-2.4 0.2-3.7 1.1zm-61.3-0.1c-0.5 0.4-0.8 1.7-0.7 3 0.1 1.6 0.7 2.2 1.7 1.8 0.8-0.3 1.5-1.6 1.5-3 0-1.4-0.4-2.5-0.8-2.5-0.5 0-1.2 0.3-1.7 0.7z"/>
		<path id="Path 4" class="s2" d="m239 25.7c-1.5 1.2-2 2.4-1.7 3.8 0.4 1.1 1.7 2.3 2.9 2.6 1.3 0.4 3.4 0.1 4.8-0.5 1.8-0.8 2.5-1.9 2.5-4.1 0-2.5-0.4-2.9-3.1-3.2-1.9-0.2-4 0.3-5.4 1.4zm-120.7 1.8l-2.8 2.5c3.9 3.2 5.8 4.1 6.8 4 0.9 0 3.3-0.8 5.2-1.7 2-1 3.5-2.2 3.6-2.8 0-0.6-0.8-1.8-1.8-2.7-1-1-3.2-1.8-5-1.8-2 0-4.2 0.9-6 2.5z"/>
		<path id="Path 5" class="s0" d="m33.4 44.8c0.3 0.9 1.2 4.9 1.9 8.7 0.8 3.8 2.2 8.5 3.1 10.3 0.9 1.7 2.6 3.9 3.9 4.7 1.2 0.8 4.3 1.5 7 1.5 2.7 0 5-0.5 5.3-1.2 0.4-0.7 0.4-2.3 0-3.5-0.3-1.3-5-6.8-10.3-12.3-5.4-5.6-10.2-10.1-10.6-10-0.5 0-0.6 0.8-0.3 1.8z"/>
	</g>
</svg>