<svg version="1.2" xmlns="http://www.w3.org/2000/svg" viewBox="0 0 593 453" width="593" height="453">
	<style>
		.s0 { opacity: 1;fill: #010101 } 
		.s1 { opacity: 1;fill: #040404 } 
		.s2 { opacity: 1;fill: #0a0a08 } 
		.s3 { opacity: .99;fill: #ede8d7 } 
	</style>
	<g id="Background">
		<path id="Path 0" class="s0" d="m97.5 106.02c-2.75 0.5-8.15 1.87-12 3.04-3.85 1.17-10.12 3.77-13.94 5.78-3.82 2.01-9.16 5.69-11.87 8.16-2.71 2.47-6.7 7.2-8.87 10.5-2.17 3.3-4.77 8.7-5.78 12-1.01 3.3-2.14 9.6-2.5 14-0.37 4.4-0.22 10.03 0.31 12.5 0.54 2.48 1.19 5.4 1.44 6.5 0.24 1.1 1.16 3.35 2.04 5l1.59 3c0.07-6.96 0.53-8.5 1.33-8.5 0.69 0 1.25-0.68 1.25-1.5 0-0.82-0.56-1.5-1.25-1.5-0.69 0-1.25-0.45-1.25-1 0-0.55-0.55-0.66-1.22-0.25-0.94 0.58-0.97 0.29-0.1-1.25 0.77-1.37 0.82-2.79 0.15-4.5-0.54-1.37-1.51-2.83-2.16-3.23-0.87-0.55-0.85-0.74 0.08-0.75 0.79-0.01 1.25-1.49 1.25-4.02 0-3.33 0.42-4.17 2.5-5 1.37-0.55 2.5-1.45 2.5-2 0-0.55 1.69-2.61 3.75-4.57 2.4-2.28 5.17-3.81 7.67-4.25 2.16-0.37 4.86-1.48 6-2.46 1.6-1.37 2.24-1.48 2.77-0.5 0.39 0.71 0.88 1.06 1.11 0.78 0.22-0.28 0.96-1.4 1.63-2.5 0.89-1.46 1.06-1.52 0.65-0.25-0.32 0.96-0.39 1.75-0.15 1.75 0.23 0 1.02-0.59 1.75-1.31 0.73-0.72 2.67-2.02 4.32-2.89 2.29-1.21 3.33-1.32 4.4-0.45 1.12 0.92 1.27 0.81 0.75-0.6-0.47-1.27-0.24-1.61 0.85-1.25 0.83 0.28 1.39 1.29 1.25 2.25-0.16 1.12 0.29 1.62 1.25 1.38 0.83-0.2 2.39-0.42 3.48-0.5 1.44-0.09 2.04-0.94 2.21-3.13 0.17-2.16-0.02-2.58-0.67-1.5-0.5 0.82-1.27 1.14-1.71 0.69-0.45-0.44-0.14-1.22 0.69-1.73 0.83-0.51 1.84-0.94 2.25-0.94 0.41-0.01 0.79 0.77 0.83 1.73 0.05 1.11 0.55 0.65 1.37-1.25 0.7-1.65 2.02-3.34 2.92-3.75 0.89-0.41 2.64-0.37 3.88 0.1 1.24 0.46 2.59 1.59 3 2.5 0.41 0.91 1.31 1.6 2 1.53 0.69-0.06 1.92-0.07 2.75 0 1.06 0.08 1.59 1.51 1.8 4.87 0.17 2.61 0.73 4.86 1.25 5 0.52 0.14 0.95 0.93 0.95 1.75 0 0.82 0.9 1.95 2 2.5 1.1 0.55 1.78 1.22 1.5 1.5-0.28 0.28 0.51 1.59 1.75 2.91 2.21 2.38 2.36 2.4 9.25 1.13 3.85-0.71 8.69-1.57 10.75-1.91l3.75-0.63c-0.59-16.66-1.31-21.1-2.82-25-1.17-3.03-3.83-7.26-5.91-9.41-2.07-2.15-6.24-5.04-9.27-6.42-4.43-2.03-7.36-2.57-15-2.79-5.22-0.15-11.75 0.14-14.5 0.64zm466.67 82.73c-1.15 0.96-3.25 4.9-4.67 8.75-1.42 3.85-7.29 15.89-13.04 26.75-5.75 10.86-12.15 22.45-14.21 25.75-2.06 3.3-4.09 6-4.5 6-0.41 0-0.95-0.79-1.19-1.75-0.25-0.96-0.94-4.45-1.55-7.75-0.6-3.3-1.41-11.55-1.8-18.33-0.57-9.92-1.06-12.65-2.49-14-1.51-1.41-1.78-1.44-1.77-0.17 0.02 1.2-0.13 1.23-0.72 0.14-0.4-0.74-1.4-1.14-2.23-0.88-0.83 0.26-2.29 0.08-3.25-0.4-1.08-0.53-1.75-0.48-1.75 0.14 0 0.55-0.45 0.77-1 0.5-0.55-0.27-1.56 0.23-2.25 1.13-1 1.3-0.99 4.24 0.05 14.75 0.72 7.22 1.99 16.49 2.84 20.62 0.84 4.12 2.39 9.52 3.43 12 1.05 2.48 3.15 5.76 4.67 7.29 1.85 1.88 4.28 3.03 7.39 3.5 3.49 0.54 5.04 0.34 6.28-0.79 0.9-0.82 1.84-1.27 2.1-1 0.25 0.27-0.62 3.65-1.95 7.5-1.86 5.4-2.14 7.29-1.24 8.27 0.65 0.69 1.97 1.26 2.93 1.25 0.96-0.01 1.98 0.43 2.25 0.98 0.27 0.55 1.62 0.77 3 0.5 1.52-0.3 2.63-0.01 2.84 0.75 0.25 0.94 0.75 0.88 2.04-0.25 0.94-0.82 1.69-2.51 1.66-3.75-0.02-1.24 0.88-3.49 1.99-5 1.12-1.51 2.02-3.43 2-4.25-0.02-0.82 1.13-4.65 2.56-8.5 1.43-3.85 2.97-8.13 3.43-9.5 0.45-1.38 2.93-8.35 5.49-15.5 2.56-7.15 5.7-15.93 6.97-19.5 1.27-3.57 3.96-10.77 5.97-16 2.32-6.03 3.55-10.77 3.35-12.97-0.23-2.68-1.09-3.99-3.8-5.78-1.92-1.27-4.46-2.29-5.63-2.28-1.17 0.02-3.06 0.82-4.2 1.78zm-427.62 22.41c-1.62 0.55-2.86 1.64-2.75 2.42 0.11 0.78-0.25 1.42-0.8 1.42-0.55 0-1.01-0.79-1.02-1.75-0.01-1.49-0.15-1.52-0.93-0.25-0.5 0.82-0.72 1.84-0.48 2.25 0.23 0.41 0.09 0.7-0.32 0.63-0.41-0.06-1.2-0.07-1.75-0.02-0.55 0.05-1.35 1.57-1.78 3.37-0.59 2.48-0.98 2.91-1.63 1.77-0.66-1.16-1.1-0.77-1.97 1.75-0.77 2.22-1.91 3.41-3.62 3.75-1.38 0.27-2.5 0.95-2.5 1.5 0 0.55 0.67 1.23 1.5 1.5 0.88 0.29 1.19 1.01 0.75 1.73-0.53 0.87-0.24 1.02 1 0.5 0.99-0.41 1.75-0.29 1.75 0.27 0 0.55-0.45 1-1 1-0.55 0-1.01 0.79-1.02 1.75-0.01 0.96 0.44 2.2 0.99 2.75 0.56 0.55 1.28 2.12 1.61 3.5 0.34 1.37 0.57 3.51 0.52 4.75-0.06 1.24 0.35 2.48 0.9 2.75 0.55 0.27 3.3-2.09 6.11-5.25 2.81-3.16 6.7-9.13 8.63-13.25 2.7-5.76 3.36-8.2 2.83-10.5-0.38-1.65-0.7-4.46-0.7-6.25-0.01-1.79-0.32-3.21-0.69-3.17-0.38 0.04-2.01 0.53-3.63 1.08zm-85.58 9.09c-0.01 1.79 0.32 3.59 0.75 4.01 0.43 0.42 1.53-0.48 2.45-2 0.92-1.52 1.48-3.32 1.25-4.01-0.23-0.69-1.32-1.25-2.42-1.25-1.58 0-2.01 0.68-2.03 3.25zm-12.45 0.22c-1.76 1.11-1.96 2.23-1.76 10.14 0.12 4.89 0.96 11.37 1.86 14.39 0.89 3.02 2.36 6.54 3.25 7.81 1.57 2.22 1.69 2.24 3.37 0.5 1.15-1.2 1.82-3.75 2-7.56 0.15-3.35-0.16-5.72-0.74-5.7-0.55 0.02-0.44-0.66 0.25-1.51 0.79-0.97 0.88-1.73 0.25-2.04-0.55-0.27-0.72-1.29-0.37-2.25 0.34-0.96 0.96-3.44 1.37-5.5 0.6-2.96 0.36-4.23-1.1-6-1.03-1.24-1.69-2.48-1.48-2.75 0.22-0.27-0.8-0.56-2.26-0.64-1.47-0.08-3.55 0.42-4.64 1.11zm12.46 37.03c-0.05 3.43 0.34 4.18 2.73 5.28 1.53 0.71 4.48 1.72 6.54 2.25 2.06 0.54 3.75 0.74 3.75 0.47 0-0.27-1.12-1.74-2.49-3.25-1.36-1.51-2.26-3.09-2-3.5 0.27-0.41-0.07-1.34-0.76-2.06-0.69-0.72-2.38-1.27-3.75-1.22-1.38 0.05-2.83-0.37-3.23-0.94-0.41-0.57-0.76 0.77-0.79 2.97zm470.4 57.4c-1.12 4.02-1.48 6.8-0.88 6.9 0.55 0.09 2.46 0.4 4.25 0.68l3.25 0.52c0-7.21-0.5-9.17-1.25-9.42-0.92-0.32-0.95-0.65-0.11-1.25 0.79-0.58 0.45-1.34-1.11-2.49-2.26-1.67-2.27-1.66-4.15 5.06zm-16.13 62.1l-2 2c3.29-0.02 4.93-0.42 5.75-0.9 0.82-0.48 1.16-1.38 0.75-1.99-0.41-0.61-1.14-1.11-1.63-1.11-0.48 0-1.77 0.9-2.87 2z"/>
		<path id="Path 1" class="s1" d="m100.22 127.93c-0.7 0.49-1.9 2.17-2.67 3.73-0.96 1.97-1.41 2.3-1.47 1.09-0.04-0.96-0.53-1.75-1.08-1.75-0.56 0-0.67 0.7-0.25 1.6 0.6 1.29 0.35 1.46-1.25 0.87-1.94-0.72-1.94-0.7-0.1 0.65 1.05 0.76 1.61 1.94 1.25 2.63-0.47 0.91 0.38 1.2 3.1 1.07 2.06-0.1 4.99 0.57 6.5 1.5 1.51 0.92 3.42 3.25 4.25 5.18 0.83 1.93 1.5 5.07 1.5 7v3.5c6.59-1.02 9.63-1.61 11-1.96l2.5-0.63c-3.49-3.42-4.28-4.64-4-4.91 0.28-0.28-0.4-0.95-1.5-1.5-1.1-0.55-2-1.68-2-2.5 0-0.82-0.43-1.61-0.95-1.75-0.52-0.14-1.08-2.39-1.25-5-0.21-3.36-0.74-4.79-1.8-4.87-0.83-0.07-1.72-0.1-2-0.07-0.28 0.02-1.4 0.34-2.5 0.71-1.22 0.41-1.51 0.34-0.75-0.18 1-0.67 1-1.17 0-2.49-0.69-0.91-2.15-1.91-3.25-2.23-1.1-0.32-2.58-0.18-3.28 0.31zm-14.72 7.07c0.28 0.55 0.04 1.79-0.52 2.75-0.92 1.57-1 1.58-0.75 0.07 0.15-0.93-0.07-1.72-0.48-1.75-0.41-0.04-2.1 0.38-3.75 0.93-1.65 0.55-3 1.45-3 2 0 0.55-0.67 0.77-1.5 0.5-0.83-0.28-1.72 0.18-2 1-0.31 0.92-1.27 1.31-2.5 1-1.1-0.28-2.56 0.08-3.25 0.78-0.69 0.7-3.23 1.6-5.65 2-3.18 0.51-5.34 1.69-7.75 4.22-1.84 1.92-3.35 3.95-3.35 4.5 0 0.55-1.12 1.45-2.5 2-2.08 0.83-2.5 1.67-2.5 5 0 2.2-0.45 4-1 4-0.55 0-0.33 0.68 0.5 1.5 0.83 0.82 1.84 3.31 2.25 5.52 0.41 2.21 1.2 4.01 1.75 4 0.55-0.01 1 0.66 1 1.48 0 0.82-0.56 1.5-1.25 1.5-0.8 0-1.26 1.53-1.27 4.25-0.01 3.49 0.57 4.82 3.25 7.45 1.8 1.75 5.86 4.34 9.02 5.75 3.16 1.4 6.09 2.32 6.5 2.03 0.41-0.28 0.23-1.07-0.41-1.75-0.64-0.67-0.98-2.02-0.75-2.98 0.22-0.96 0.86-1.75 1.41-1.75 0.55 0 1-0.45 1-1 0-0.55-0.67-1-1.5-1-0.83 0-1.28-0.45-1-1 0.28-0.55 0.95-0.77 1.5-0.5 0.55 0.27 1-0.63 1-2 0-1.38-0.45-2.5-1-2.5-0.55 0-1.02-0.56-1.04-1.25-0.03-0.69 0.65-1.81 1.5-2.5 0.86-0.7 1.32-2.13 1.04-3.25q-0.5-2 2-4c1.38-1.1 2.5-2.23 2.5-2.5 0-0.28-0.45-0.28-1 0-0.55 0.27-1.22 0.05-1.5-0.5-0.28-0.55 0.51-1.19 1.75-1.43 1.64-0.31 2.05-0.86 1.5-2-0.56-1.18-0.07-1.71 2-2.13 2.18-0.45 2.44-0.75 1.25-1.49-1.2-0.73-1.04-0.92 0.75-0.93q2.26-0.02 1.54-1.27c-0.4-0.69-0.61-3.5-0.48-6.25 0.13-2.79 1.07-6.32 2.12-8 1.04-1.65 3.02-3.68 4.41-4.5 1.57-0.94 2.48-2.34 2.41-3.74-0.05-1.24-0.69-2.47-1.42-2.75-0.73-0.28-1.11-0.06-0.83 0.49zm11.5 33c0 0.55 0.67 1.22 1.5 1.5 0.83 0.27 1.28 0.95 1 1.5-0.28 0.55 0.17 1 1 1q1.5 0 1.39 2.75c-0.07 1.51 0.38 2.86 1 3 0.61 0.14 0.89 0.7 0.61 1.25-0.28 0.55-0.05 1 0.5 1 0.55 0 1-0.45 1-1 0-0.55-0.67-1.68-1.5-2.5-0.83-0.82-1.22-2.06-0.87-2.75 0.47-0.95 0.83-0.89 1.48 0.25 0.59 1.04 0.86 0.34 0.87-2.25 0.02-3.08-0.38-3.84-2.23-4.24-1.24-0.26-3.04-0.49-4-0.5-0.96 0-1.75 0.44-1.75 0.99zm17.83 3.19c-0.29 0.72-1.95 1.65-3.68 2.06-2.04 0.49-2.93 1.19-2.52 2 0.47 0.95 0.85 0.89 1.57-0.25 0.7-1.11 1.06-1.17 1.38-0.25 0.23 0.69 0.98 0.96 1.67 0.6 0.69-0.36 1.79 0.2 2.45 1.25 0.95 1.51 0.9 2.36-0.25 4.15-1.35 2.09-1.29 2.25 0.75 2.25 1.75 0 1.95 0.26 0.97 1.25-0.98 1-1.67 0.99-3.45-0.05l-2.22-1.3c3.24 2.79 4.47 4.61 4.84 5.85 0.36 1.24 0.32 2.25-0.09 2.25-0.41 0-0.73 2.59-0.7 5.75 0.03 3.16-0.14 6.2-0.37 6.75-0.24 0.55-0.82 0.32-1.29-0.5-0.72-1.26-0.86-1.22-0.87 0.25-0.01 1.11-0.57 1.57-1.52 1.25-1.07-0.36-1.5 0.22-1.5 2 0 1.81-0.48 2.43-1.75 2.25-1.52-0.22-1.7 0.5-1.39 5.75 0.24 4.1-0.16 7.03-1.26 9.25-0.88 1.79-3.06 4.3-4.85 5.59-1.79 1.29-4.71 2.86-6.5 3.5-1.79 0.64-3.03 1.61-2.75 2.16 0.28 0.55 0.05 1-0.5 1-0.55 0-1-0.45-1-1 0-0.55-0.67-1-1.5-1-1.02 0-1.36 0.72-1.05 2.25 0.4 2.01 0.32 2.07-0.75 0.51-0.66-0.95-1.56-1.4-2.01-1-0.44 0.41-1.11 0.17-1.5-0.54-0.38-0.7-2.12-1.37-3.86-1.5-1.75-0.12-2.98-0.45-2.74-0.72 0.23-0.27-0.59-1.55-1.83-2.83-1.84-1.9-2.31-3.64-2.51-9.25-0.23-6.45-0.4-6.92-2.5-6.88-1.24 0.03-4.95 0.61-8.25 1.3-4.23 0.88-6 1.71-6 2.8 0 0.86-0.67 2.74-1.5 4.17-0.82 1.44-1.84 2.41-2.25 2.15-0.41-0.25-0.79-2.15-0.83-4.21-0.04-2.06-0.27-3.19-0.5-2.5-0.23 0.69-0.87 1.02-1.42 0.75-0.55-0.27-1 0.4-1 1.5 0 1.1-0.45 2-1 2-0.55 0-0.44 0.63 0.25 1.4 0.69 0.76 1.7 1.13 2.25 0.8 0.55-0.32 0.45 0.06-0.22 0.86-0.67 0.79-1.39 3.92-1.59 6.94-0.21 3.02-0.67 6.06-1.04 6.75-0.36 0.69-0.31 1.25 0.1 1.25 0.41 0.01 0.62 2.59 0.47 5.75-0.18 3.78-0.87 6.35-2 7.52-1.63 1.67-1.56 1.92 1.28 4.77 1.65 1.65 3.34 2.99 3.75 2.98 0.41-0.01 0.76-1.71 0.77-3.77 0-2.06 0.34-3.29 0.75-2.72 0.4 0.57 1.86 0.99 3.23 0.94 1.38-0.05 3.06 0.5 3.75 1.22 0.69 0.72 1.04 1.65 0.78 2.06-0.26 0.41 0.89 2.32 2.55 4.25l3.03 3.5c18.9-1.06 27.09-2.09 30.39-2.97 3.3-0.87 9.38-3.18 13.5-5.12 4.13-1.93 9.16-4.73 11.2-6.21 3.11-2.27 3.63-3.18 3.29-5.7-0.22-1.65-0.65-4.13-0.96-5.5-0.3-1.38-1-2.95-1.56-3.5-0.55-0.55-1-1.79-0.99-2.75 0.01-0.96 0.58-1.94 1.27-2.17 0.69-0.23 0.46-0.46-0.5-0.5-0.96-0.04-1.53-0.53-1.25-1.08 0.28-0.55-0.17-1.23-1-1.5-0.82-0.27-1.5-0.95-1.5-1.5 0-0.55 1.13-1.23 2.5-1.5 1.71-0.34 2.85-1.53 3.62-3.75 0.87-2.52 1.31-2.91 1.97-1.75 0.65 1.14 1.04 0.71 1.63-1.77 0.43-1.8 1.23-3.32 1.78-3.37 0.55-0.05 1.34-0.04 1.75 0.02 0.41 0.07 0.55-0.22 0.32-0.63-0.24-0.41-0.02-1.43 0.48-2.25 0.78-1.27 0.92-1.24 0.93 0.25 0.01 0.96 0.47 1.75 1.02 1.75 0.55 0 1-0.68 1-1.5 0-0.82 1.46-1.96 3.25-2.52 1.79-0.56 3.36-1.01 3.5-1 0.14 0.01 0.17 1.48 0.08 3.27-0.09 1.79 0.32 4.15 0.91 5.25 0.91 1.69 1.19 1.07 1.8-4 0.4-3.3 0.51-9.6 0.26-14-0.34-5.92-1.12-9.3-2.99-13-1.4-2.75-4.73-6.94-7.42-9.31-3.22-2.84-6.77-4.86-10.39-5.89-3.03-0.86-5.98-1.76-6.56-1.99-0.59-0.24-1.31 0.16-1.61 0.88zm-77.32 48.5c-1.82 0.42-1.95 1.1-1.56 7.63l0.44 7.18c0.65-11.09 1.26-13.36 2.44-14.22 0.92-0.67 1.44-1.18 1.17-1.13-0.28 0.04-1.4 0.29-2.49 0.54zm490.43 73.57c-1.16 3.98-2.75 8.93-3.53 10.99-1.33 3.55-1.29 3.84 0.84 5.5 1.79 1.39 2.33 2.98 2.63 7.75l0.37 6c-4.46-0.93-6.42-1.38-7.23-1.6-1.13-0.31-2.13 2.19-4.23 10.6-1.51 6.05-2.87 12.68-3.02 14.74-0.18 2.47 0.16 3.74 0.98 3.75 0.77 0.01 1.15-1.1 1-2.88-0.14-1.59 0.09-2.72 0.5-2.5 0.41 0.21 0.99-1.07 1.29-2.86 0.3-1.79 0.64-3.98 0.75-4.87 0.12-0.9 0.77-1.46 1.46-1.25 0.91 0.27 1 1.12 0.31 3.12-0.51 1.51-0.63 3.08-0.25 3.48 0.38 0.4 0.13 1.41-0.56 2.25-0.69 0.83-1.06 2.08-0.83 2.77 0.23 0.69 0.44 0.35 0.46-0.75 0.03-1.84 0.2-1.8 2.04 0.5l2.01 2.5c0.06-3.82 0.67-4.5 2.07-4.5 1.47 0 1.8-0.42 1.25-1.59-0.41-0.87-0.27-1.88 0.32-2.25 0.59-0.36 1.88-2.68 2.88-5.16 1-2.48 2.63-7.2 3.63-10.5 1-3.3 1.62-6.34 1.37-6.75-0.25-0.41-0.11-0.74 0.3-0.73 0.41 0.01 1.87-3.48 3.25-7.75 1.37-4.27 2.54-8.22 2.59-8.77 0.06-0.55 0.67-2.35 1.36-4 0.7-1.65 1.67-4.24 2.16-5.75 0.73-2.24 0.61-2.66-0.61-2.25-0.83 0.27-1.5 0.05-1.5-0.5 0-0.55-0.9-0.77-2-0.5-1.1 0.27-2.9 0.05-4-0.5-1.1-0.55-2.89-1.45-3.98-1.99-1.8-0.91-2.16-0.37-4.08 6.25zm-10.42 58.99c-0.29 1.24-0.41 3.27-0.27 4.53 0.23 2.12 0.34 2.15 1.57 0.5 0.73-0.98 1.74-1.67 2.25-1.53 0.51 0.14 0.93-0.43 0.93-1.25 0-0.82-0.67-1.5-1.5-1.5-0.83 0-1.73 0.56-2.01 1.25-0.27 0.69-0.31 0.01-0.07-1.5 0.24-1.51 0.25-2.75 0.02-2.75-0.22 0-0.64 1.01-0.92 2.25zm13.52 11.97c-1.35 0.6-2.36 1.47-2.25 1.93 0.12 0.47-0.24 0.62-0.79 0.35-0.55-0.27-1-0.05-1 0.5 0 0.58 1.37 0.76 3.25 0.42 1.79-0.31 4.04-0.99 5-1.5 0.96-0.5 1.75-1.37 1.75-1.92 0-0.55-0.79-0.97-1.75-0.93-0.96 0.03-2.86 0.55-4.21 1.15zm2.31 11.45c-1.57 2.08-2.18 3.38-1.35 2.89 0.83-0.5 0.6 0.07-0.5 1.27-1.49 1.62-1.62 2.08-0.48 1.83 0.84-0.19 2.56-1.42 3.82-2.75 1.49-1.57 2.13-3.21 1.83-4.72-0.44-2.2-0.61-2.13-3.32 1.48zm-33.23 3.32c-1.86 1.09-3.33 2.21-3.25 2.5 0.07 0.28 0.69 0.25 1.38-0.06 0.69-0.32 0.57 0.02-0.25 0.75-0.86 0.76-1.38 2.6-1.22 4.32 0.19 2.07-0.59 4.09-2.5 6.5-1.53 1.92-3.79 4.96-5.03 6.75-1.24 1.79-1.91 3.26-1.5 3.28 0.41 0.02-0.04 0.47-1 1-0.96 0.53-1.75 1.87-1.75 2.97 0 1.1-0.45 1.77-1 1.5-0.55-0.27-1 0.18-1 1 0 0.82 0.79 1.47 1.75 1.43 0.96-0.04 4.23 0.24 7.25 0.63 5.2 0.67 5.6 0.57 7.25-1.92 0.96-1.45 2.2-2.64 2.75-2.64 0.55 0 0.99 0.79 0.97 1.75-0.01 0.96 0.21 2.09 0.5 2.5 0.29 0.41 1.81-1.61 3.38-4.5 1.7-3.13 3.42-5.12 4.25-4.92 0.77 0.19 1.06-0.04 0.65-0.5-0.41-0.45 0.27-1.5 1.5-2.32 1.24-0.82 2.5-1.5 2.81-1.5 0.31-0.01 2.9-1.92 5.75-4.26 2.86-2.34 4.96-4.7 4.69-5.25-0.27-0.55 0.17-1.45 1-2 0.83-0.55 1.23-1.56 0.89-2.25q-0.61-1.25-5.01 3.25c-2.43 2.48-4.44 5.4-4.47 6.5q-0.06 2.06-0.58 0.5c-0.4-1.18-0.8-1.02-1.92 0.75-0.86 1.38-1.89 1.96-2.65 1.5q-1.23-0.74-0.5 0.5c0.45 0.76 0.05 1.51-1.01 1.91-0.96 0.37-2.1 0.71-2.54 0.75-0.43 0.05-1.21 0.77-1.73 1.59-0.52 0.82-0.96 1.16-0.96 0.75-0.01-0.41-1.48 0.15-3.27 1.25-1.79 1.09-3.81 1.99-4.5 2-0.89 0-1.07-1.09-0.64-3.75 0.39-2.41 0.12-4.53-0.75-5.92-1.19-1.9-1.13-2.41 0.47-4 1.33-1.34 1.65-2.64 1.18-4.83-0.47-2.22-0.17-3.4 1.18-4.56 0.99-0.85 2.04-1.56 2.31-1.58 0.27-0.01 1.18-0.29 2-0.61 1.2-0.47 1.15-0.61-0.25-0.67-0.96-0.04-1.54-0.53-1.29-1.08 0.26-0.55 0.37-1 0.25-1-0.11 0.01-1.73 0.9-3.59 1.99zm2.96 52.58c-0.48 1.41-0.92 3.88-0.98 5.5-0.05 1.61 0.35 3.16 0.9 3.43 0.58 0.29 0.89-0.71 0.75-2.36-0.14-1.58 0.2-2.69 0.75-2.49 0.55 0.21 1.02-1.21 1.05-3.14 0.03-1.93-0.32-3.51-0.77-3.51-0.45 0-1.22 1.15-1.7 2.57z"/>
		<path id="Path 2" class="s2" d="m78.67 157.75c-0.36 0.41-0.1 1.33 0.59 2.04 1 1.05 0.76 1.29-1.26 1.24-2.46-0.06-2.46-0.04-0.5 1.53 1.1 0.87 1.44 1.33 0.75 1.01-0.69-0.31-2.26-0.15-3.5 0.37-2.09 0.87-2.11 0.94-0.25 1.08 1.1 0.07 1.44 0.33 0.75 0.56-0.72 0.24-0.98 1.16-0.62 2.17 0.53 1.44 0.33 1.39-1.07-0.25-0.94-1.1-1.45-1.44-1.13-0.75 0.32 0.7-0.09 1.25-0.93 1.25-0.83 0-1.28 0.45-1 1 0.28 0.55 0.95 0.78 1.5 0.5 0.55-0.28 1-0.05 1 0.5 0 0.55-0.45 1-1 1-0.55 0-0.66 0.56-0.25 1.24q0.74 1.23-0.5 0.5c-0.69-0.41-1.57-0.18-1.97 0.51-0.4 0.69-0.85 1.81-1 2.5-0.16 0.72 0.36 1.04 1.22 0.75 0.83-0.27 1.5-0.05 1.5 0.5 0 0.55-0.9 1.23-2 1.5-1.1 0.27-2.31 1.29-2.68 2.25-0.4 1.03-0.2 1.85 0.5 2 0.65 0.14 1.18 1.38 1.18 2.75 0 1.38-0.45 2.27-1 2-0.55-0.27-1.33 0.06-1.74 0.75q-0.73 1.24 0.5 0.5c0.68-0.41 1.58-0.25 1.99 0.36 0.41 0.61 0.27 1.4-0.32 1.75-0.59 0.35-1.34 1.32-1.66 2.14-0.31 0.82 0.17 2.47 1.08 3.67 1.26 1.65 4.11 2.65 12.15 4.26 5.78 1.15 11.85 2.28 13.5 2.5 1.65 0.21 4.35 0.91 6 1.55 1.65 0.63 4.31 2.36 5.9 3.83 1.6 1.48 2.61 2.13 2.25 1.44-0.37-0.71 0.32-1.91 1.6-2.78 1.49-1.01 2.25-2.53 2.25-4.51 0-2.22 0.26-2.64 1-1.63 0.55 0.74 1.67 1.1 2.5 0.81 1.13-0.41 1.26-0.19 0.51 0.91q-0.98 1.44 0 0.79c0.54-0.36 0.97-2.38 0.95-4.5-0.02-2.11-0.36-4.4-0.75-5.09-0.39-0.69-0.49-1.93-0.21-2.75 0.29-0.87 1-1.18 1.68-0.75 0.88 0.55 0.96 0.09 0.34-1.75-0.46-1.38-1.78-3.31-2.93-4.3l-2.09-1.8c4 2.34 4.69 2.35 5.67 1.35 0.98-0.99 0.78-1.25-0.97-1.25-2.08 0-2.12-0.14-0.7-2.5 1.43-2.38 1.4-2.45-0.5-1.5-1.1 0.55-2.22 1-2.5 1-0.28 0-0.28-0.68 0-1.5 0.28-0.82 0.91-1.39 1.4-1.25 0.5 0.14 0.95-0.2 1-0.75 0.06-0.55-0.46-1-1.15-1-0.69 0-1.59-0.45-2-1-0.47-0.63-1.08-0.44-1.63 0.5-0.66 1.14-1.02 1.2-1.5 0.25-0.4-0.81 0.49-1.51 2.54-2 1.73-0.41 3.31-1.43 3.5-2.25 0.19-0.82 0.12-0.94-0.16-0.25-0.28 0.69-0.95 1.25-1.5 1.25-0.55 0-0.78-0.68-0.5-1.5 0.28-0.82 0.05-1.5-0.5-1.5-0.55 0-1 0.68-1 1.5 0 0.82-0.67 1.72-1.5 2-1.07 0.36-1.43-0.13-1.25-1.73q0.24-2.21-1.5-2.5c-1.36-0.21-1.75 0.45-1.77 2.98-0.01 1.79 0.56 3.82 1.25 4.52 1.01 1 1.01 1.26 0.02 1.25-0.69-0.01-1.25 0.66-1.25 1.48 0 0.82-0.45 1.5-1 1.5-0.55 0-0.78-0.45-0.5-1 0.28-0.55 0-1.11-0.61-1.25-0.62-0.14-1.07-1.49-1-3q0.11-2.75-1.39-2.75c-0.83 0-1.28-0.45-1-1 0.28-0.55-0.2-1.34-1.06-1.75-0.85-0.41-1.3-1.31-1-2q0.58-1.25-3.19-1.71c-2.32-0.29-4.03 0-4.48 0.75q-0.74 1.23-0.75-0.54c-0.01-1.02-1.17-2.12-2.77-2.63-1.51-0.49-3.75-1.73-4.98-2.75-1.23-1.03-1.94-2.21-1.59-2.62 0.36-0.41 0.43-0.75 0.15-0.75-0.27 0-0.79 0.34-1.16 0.75zm440.21 186.5c-0.06 0.69-0.04 1.93 0.06 2.75 0.09 0.82-0.35 1.73-0.99 2-0.84 0.36-0.88 1.32-0.13 3.5 0.56 1.65 1.06 2.44 1.1 1.75 0.04-0.69 0.75-1.25 1.58-1.25 0.83 0 1.73-0.45 2-1 0.27-0.55-0.4-2.13-1.5-3.5-1.1-1.38-1.78-3.18-1.52-4 0.27-0.82 0.27-1.5 0-1.5-0.26 0-0.53 0.56-0.6 1.25zm4.12 3.25c0 0.82 0.45 1.5 1 1.5 0.56 0 0.72 0.98 0.35 2.25-0.35 1.24-0.42 2.02-0.15 1.75 0.28-0.27 1.02-1.96 1.65-3.75 1.05-2.97 0.98-3.25-0.85-3.25-1.11 0-2 0.67-2 1.5zm24.27 6.22c-0.53 0.94-3.84 3.43-7.37 5.52-3.52 2.1-5.61 3.8-4.65 3.79 0.96-0.02 1.75 0.42 1.75 0.97 0 0.55 1.13 0.32 2.5-0.5 1.38-0.82 2.5-1.16 2.5-0.75 0.01 0.41-1.12 2.44-2.5 4.5-1.37 2.06-2.49 4.99-2.48 6.5l0.02 2.75c3.13-3.88 6.05-8.94 8.5-13.75 2.45-4.81 4.46-9.2 4.46-9.75 0-0.55-0.4-1-0.89-1-0.49 0-1.32 0.77-1.84 1.72zm-33.95 1.51c-0.55 0.7-1.27 1.95-1.59 2.77-0.32 0.82-0.24 2.85 0.18 4.5 0.74 2.85 0.83 2.73 1.86-2.4 0.59-2.96 0.96-5.56 0.82-5.77-0.14-0.21-0.71 0.2-1.27 0.9zm15.1 11.02c0.32 0.96 0.13 1.75-0.42 1.75-0.55 0-1.19-0.56-1.42-1.25-0.23-0.69-0.46-0.35-0.52 0.75-0.07 1.66-0.25 1.75-1.06 0.5-0.53-0.82-0.97-1.05-0.97-0.5 0 0.55 0.44 1.68 0.97 2.5q0.97 1.5 0.98 0.25c0.01-0.69 0.36-1.05 0.77-0.82 0.41 0.24 1.36 0.13 2.11-0.25 1.09-0.54 1.12-1.09 0.18-2.68-0.85-1.43-1.03-1.5-0.62-0.25zm-12 4.77c-5.44 2.51-5.72 2.79-3.42 3.45 1.7 0.48 3.87 0.04 6.75-1.38 2.34-1.15 4.3-2.51 4.35-3.03 0.06-0.52-0.31-1.13-0.82-1.36-0.51-0.23-3.6 0.81-6.86 2.32zm13.58 8.98c-1.1 1.1-1.77 2.68-1.5 3.5 0.28 0.82-0.06 1.84-0.74 2.25-0.89 0.54-0.99 0.33-0.35-0.75 0.74-1.25 0.65-1.28-0.51-0.19-0.77 0.73-1.51 1.96-1.65 2.75-0.19 1.11 0.17 1.21 1.56 0.43 1-0.55 2.58-2.01 3.51-3.25 0.93-1.23 1.69-2.58 1.69-2.99-0.01-0.41-0.57-0.45-1.26-0.08-0.69 0.37-0.41-0.3 0.62-1.5 1.03-1.19 1.6-2.17 1.25-2.17-0.34 0-1.52 0.9-2.62 2zm-15.52 15.5c-0.27 0.82-1.38 1.73-2.48 2-1.1 0.27-1.84 1.06-1.64 1.75 0.19 0.69-0.52 2.6-1.59 4.25l-1.95 3c3.63-3.96 5.69-5.65 6.93-6.31 1.24-0.65 2.05-1.75 1.81-2.44-0.24-0.69 0.08-1.81 0.7-2.5 0.86-0.94 0.83-1.25-0.08-1.25-0.68 0-1.44 0.68-1.7 1.5zm-10.99 28.75c-0.34 1.24-0.38 2.48-0.08 2.75 0.29 0.27 0.1 1.29-0.44 2.25-0.83 1.5-0.72 1.59 0.78 0.66 1.23-0.77 1.66-2.1 1.44-4.5-0.17-1.88-0.48-3.41-0.7-3.41-0.21 0-0.66 1.01-1 2.25z"/>
		<path id="Path 3" class="s3" d="m519.66 373.84l-19.83 9.66c0.94 4.87 0.6 6.85-0.34 8.25-1.16 1.76-1.24 2.74-0.37 4.5 0.61 1.24 0.95 3.48 0.75 4.99-0.2 1.51-0.14 2.75 0.13 2.77 0.28 0.02 3.43-1.82 7-4.1 3.58-2.28 10.78-8.47 16-13.77 5.23-5.3 11.37-12.45 13.66-15.89 2.3-3.44 3.87-6.21 3.5-6.16-0.36 0.04-9.59 4.43-20.5 9.75z"/>
		<path id="Path 4" fill-rule="evenodd" class="s0" d="m575.09 18.12c0.32-0.07 0.13 0.89-0.42 2.13-0.55 1.24-7.04 11.7-14.42 23.25-7.38 11.55-14.28 21.79-15.33 22.75-1.43 1.3-2.69 1.56-4.94 1-2.51-0.62-3.02-0.45-3 1 0.02 1.54-0.36 1.61-3.23 0.6-1.79-0.62-3.83-1.64-4.54-2.25-1-0.85-1.28-0.64-1.23 0.9 0.06 1.81-0.2 1.74-2.71-0.73-1.52-1.5-3.33-2.74-4.02-2.75-0.69-0.01-1.03-0.7-0.75-1.52 0.27-0.82 0.05-1.5-0.5-1.5-0.55 0-1.11 0.52-1.25 1.15-0.16 0.74-0.87 0.56-2-0.5-0.96-0.91-1.76-1.99-1.76-2.4-0.01-0.41 4.22-7.95 18.82-32.75l16.34-3.2c8.99-1.76 18.15-3.62 20.35-4.13 2.2-0.51 4.26-0.98 4.59-1.05zm-81.34 14.96c2.03-0.07 2.25 0.39 2.25 4.67 0.01 2.61-0.33 8.95-0.75 14.09-0.54 6.72-1.24 9.88-2.5 11.25-0.96 1.05-2.2 1.69-2.75 1.41-0.55-0.28-1.23-0.05-1.5 0.5-0.28 0.55-0.05 1 0.5 1 0.55 0-0.24 2.01-1.75 4.47-1.51 2.46-3.2 4.5-3.75 4.54-0.55 0.04-2.01 1.18-3.25 2.53-1.24 1.35-2.25 2.68-2.25 2.96 0 0.28 0.45 0.28 1 0 0.55-0.28 1 0.18 1 1 0 0.82-1.29 2.51-2.88 3.75-1.58 1.24-3.38 3.26-4 4.5-0.66 1.33-0.71 2.05-0.12 1.75 0.55-0.28 1-0.05 1 0.5 0 0.55-0.42 1-0.93 1-0.51 0-1.63 0.68-2.5 1.5-0.86 0.82-1.57 1.05-1.57 0.5 0-0.55-0.34-1-0.75-1-0.41 0-0.89 1.68-1.06 3.75-0.17 2.06-0.84 4.09-1.5 4.5-0.88 0.56-0.8 1.01 0.31 1.73 1.28 0.85 1.25 0.99-0.25 1-0.96 0.01-1.55 0.58-1.31 1.27 0.24 0.69 0.05 1.7-0.42 2.25-0.47 0.55-1.1 3.93-1.4 7.5-0.3 3.57-1.02 6.95-1.6 7.5-0.58 0.55-1.05 1.34-1.04 1.75 0.01 0.41 0.55 0.64 1.21 0.5 0.67-0.14 1.43 1.33 1.75 3.39 0.31 2.01 0.91 4.03 1.34 4.5 0.43 0.47 0.76-0.94 0.73-3.14-0.04-3.56 0.1-3.79 1.22-2.1 0.7 1.05 1.72 1.65 2.27 1.34 0.55-0.31 1.56 0.52 2.25 1.85 1 1.93 1 2.42 0 2.44-0.69 0.02-0.46 0.47 0.5 1 0.96 0.53 2.26 2.66 2.89 4.72 0.63 2.06 1.87 4.14 2.75 4.61 1.42 0.77 1.43 0.98 0.11 1.82-1.12 0.71-0.93 0.81 0.75 0.39 1.24-0.32 2.25-0.12 2.25 0.43 0 0.57 1.4 0.78 3.25 0.48 1.79-0.29 3.84-0.18 4.55 0.25 1.08 0.63 1.08 4.18 0 19.95-1.02 15-1.57 18.97-2.55 18.25q-1.25-0.91-2 0.45c-0.47 0.86-6.78 2.5-16.75 4.35-8.8 1.64-16.09 2.93-16.2 2.88-0.11-0.06 0.21-7.98 0.71-17.61 0.51-9.63 1.16-20.76 1.46-24.75 0.48-6.55 0.75-7.29 5.03-8l-2.25-0.62c-1.24-0.35-2.25-1.08-2.25-1.63 0-0.55 0.67-1 1.5-1 0.82 0 1.63-0.79 1.79-1.75 0.16-0.96 0.07-2.88-0.2-4.25-0.49-2.46-0.51-2.45-1.17 0.5-0.52 2.28-0.71 1.57-0.8-3-0.06-3.3 0.6-17.03 1.48-30.5 0.88-13.47 2.12-32.82 3.9-61.47l16-3.19c8.8-1.75 17.01-3.22 18.25-3.26zm-90.25 16.3c7.93 0.24 11.12 0.8 15.42 2.71 3.37 1.5 7.14 4.32 10 7.48 2.52 2.78 5.36 7.28 6.32 10 0.95 2.71 2.18 8.08 2.73 11.93 0.54 3.85 0.99 9.25 0.99 12 0.01 2.75-0.32 5.59-0.73 6.31-0.42 0.77-7.17 2.52-16.23 4.23-8.53 1.6-16.74 3.14-21 3.96v-8c0-4.89-0.58-9.36-1.5-11.5-0.83-1.93-2.18-3.72-3-4-0.87-0.29-1.75-2.27-2.09-4.75-0.43-3.11-0.83-3.85-1.48-2.75-0.76 1.27-0.9 1.23-0.91-0.25-0.01-0.96-0.58-1.73-1.27-1.72-0.69 0.02-2.49-0.88-4-2-1.51-1.11-2.75-1.58-2.75-1.03 0 0.55-0.56 1.01-1.25 1.02-0.69 0.01-3.73-2.44-6.75-5.44-3.03-3.01-5.97-6.05-6.55-6.77-0.58-0.72-1.37-2.1-1.75-3.06-0.58-1.45 0.36-2.09 5.55-3.76 3.44-1.1 9.4-2.66 13.25-3.46 4.28-0.9 10.89-1.34 17-1.15zm-94.69 18.74c1.05-0.1 1.19 2.46 0.73 12.63-0.32 7.01-0.85 16.57-1.77 29.75l-4.37 1c-2.4 0.55-4.38 0.78-4.39 0.5-0.01-0.28-1.36-0.5-3.01-0.5-1.64 0-2.99 0.34-2.99 0.75-0.01 0.41-1.47 0.64-3.26 0.5-2.45-0.19-3.19-0.68-3-2 0.14-0.96-0.2-1.75-0.75-1.75-0.55 0-1.34 0.69-1.75 1.52-0.41 0.84-2.33 1.75-4.25 2.03-3 0.43-3.21 0.34-1.5-0.64 1.7-0.97 1.77-1.27 0.5-2.01-0.83-0.48-1.95-0.87-2.5-0.87-0.55 0-0.33 0.44 0.5 0.97q1.5 0.97 0.25 0.98c-0.69 0.01-1.69-0.77-2.22-1.73-0.86-1.55-0.97-1.49-1 0.5-0.02 1.48-0.43 1.99-1.2 1.5-0.87-0.56-0.98-5.26-0.42-18.25 0.42-9.63 0.83-17.6 0.92-17.71 0.09-0.12 7.82-1.76 17.17-3.64 9.35-1.88 17.59-3.47 18.31-3.53zm-51.15 10c2.11-0.12 2.16 0.14 1.72 9.63-0.24 5.36-0.68 12.68-1.49 22.75l-33.89 6.5v4.5c0 2.47-0.56 7.66-1.25 11.52-0.69 3.86-1.7 7.04-2.25 7.08-0.55 0.04-2.46 0.26-4.25 0.49-1.79 0.22-3.25-0.04-3.25-0.59q0-1-3.25 0c-1.79 0.55-3.81 1-4.5 1-0.69 0-1.25-0.68-1.25-1.5q0-1.5-2-1c-1.23 0.31-2.19-0.08-2.5-1-0.28-0.82-1.18-1.28-2-1-0.86 0.29-1.93-0.36-2.5-1.5-0.55-1.1-1.56-2-2.25-2-0.69 0.01-1.7-0.86-2.25-1.92-0.55-1.06-2.13-3.97-3.5-6.46-1.38-2.49-2.84-4.33-3.25-4.08-0.41 0.25-0.75-0.67-0.75-2.04 0-1.38-0.56-2.48-1.25-2.45-0.69 0.02-3.05-2.1-5.25-4.72-2.2-2.62-3.44-4.44-2.75-4.05q1.24 0.71 0.75-0.78c-0.3-0.89-1.21-1.28-2.25-0.96-0.96 0.3-2.43-0.18-3.25-1.05-1.19-1.26-1.64-1.32-2.17-0.29-0.54 1.04-0.98 1.05-2.25 0.05-0.87-0.69-1.33-1.81-1.02-2.5 0.3-0.69-0.15-1.59-1-2-0.87-0.42-1.56-0.31-1.56 0.25 0 0.55-0.45 0.78-1 0.5-0.55-0.28-1-0.05-1 0.5 0 0.55-0.93 2.01-4.13 5.5l0.31-4.5c0.31-4.42 0.39-4.5 3.82-4.5 1.92 0 3.72-0.32 4-0.7 0.27-0.39 7.47-2.06 16-3.72 8.52-1.66 28.32-5.48 44-8.48 15.67-3.01 29.4-5.67 30.5-5.92 1.1-0.24 2.97-0.5 4.16-0.56zm278.59 55.53c0.53 0.26 0.91 1.57 0.85 2.91-0.05 1.34 0.24 2.37 0.65 2.29 0.41-0.09 3.08 0.25 5.93 0.75 3.06 0.53 4.9 1.31 4.5 1.89-0.4 0.58-0.17 0.69 0.57 0.25 0.72-0.43 2.09 0.1 3.25 1.26 1.1 1.1 1.7 2.22 1.33 2.5-0.36 0.28-0.14 0.5 0.5 0.5 0.64 0 4.09 5.62 7.67 12.5 3.58 6.87 6.5 12.72 6.5 13 0 0.28-1.69 0.76-3.75 1.08-2.06 0.31-11.06 2-19.99 3.75-10.71 2.09-16.55 2.83-17.14 2.17-0.5-0.55-3.28-6.4-6.19-13-2.9-6.6-5.31-12.56-5.35-13.25-0.05-0.69-0.53-1.28-1.08-1.31-0.55-0.04 0.01-0.49 1.25-1 1.24-0.52 2.55-1.73 2.91-2.69 0.36-0.96 2.61-3.66 5-6 2.39-2.34 4.34-3.8 4.34-3.25 0 0.55 1.64-0.31 3.65-1.91 2.01-1.6 4.08-2.7 4.6-2.44zm-103.07 4.93c1.28 0.26 2.37 0.57 2.43 0.69 0.07 0.13-0.28 3.83-0.77 8.23-0.48 4.4-1.77 11.49-2.86 15.75-1.09 4.26-2.32 7.57-2.73 7.35-0.41-0.23-0.79 0.56-0.84 1.75-0.04 1.18-1.68 4.85-3.64 8.15-1.96 3.3-6.76 9.04-10.67 12.75-5.08 4.83-9.44 7.85-15.35 10.64-4.54 2.14-11.4 4.72-15.25 5.75-5.05 1.34-10.48 1.86-19.5 1.86-9.75 0-13.71-0.42-18-1.92-3.77-1.32-7.1-3.52-10.61-7-3.88-3.86-5.07-5.76-5-7.92 0.1-2.59 0.37-2.79 3.11-2.3 1.7 0.3 3.55 0.02 4.27-0.66 0.69-0.66 1.26-1.99 1.25-2.95-0.01-0.96 0.43-1.52 0.98-1.25 0.55 0.27 1.23-0.18 1.5-1 0.27-0.82 1.4-1.5 2.5-1.5 1.1 0 2.9-0.9 4-2q2-1.99 3.72-1.25c1.38 0.6 1.58 0.39 1-1-0.45-1.11-0.17-2.12 0.78-2.75 0.82-0.55 1.95-0.77 2.5-0.5 0.55 0.27 1-0.4 1-1.5 0-1.1-0.45-1.77-1-1.5-0.59 0.3-0.7-0.12-0.25-1.04 0.41-0.84 1.87-1.93 3.25-2.4 2.14-0.75 2.75-0.45 4.25 2.03 0.96 1.6 3.21 3.65 5 4.54 2.31 1.17 4.83 1.49 8.75 1.14 3.02-0.28 6.85-1.19 8.5-2.02 1.65-0.84 4.49-3.03 6.3-4.88 1.82-1.86 4.07-5.49 5-8.09 0.94-2.61 2.59-5.11 3.7-5.6 1.67-0.73 1.95-1.68 1.71-5.78-0.16-2.69 0.07-4.36 0.5-3.7q0.79 1.18 2.29 0.26c0.82-0.51 1.84-0.94 2.25-0.94 0.41-0.01 0.52 0.66 0.25 1.48-0.27 0.82-0.05 1.5 0.5 1.5 0.55 0 1.01-0.56 1.02-1.25 0.01-0.69-0.56-1.82-1.25-2.52-1.03-1.02-0.93-1.26 0.48-1.25 0.96 0.01 1.98-0.88 2.25-1.98 0.38-1.51 1.9-2.29 6.25-3.18 3.16-0.65 7.66-1.21 10-1.25 2.33-0.04 4.21-0.38 4.18-0.76-0.04-0.38 0.97-0.49 2.25-0.23zm-245.7 11.24c0.65 0.68 1.57 0.73 2.52 0.14 0.82-0.51 2.06-0.94 2.75-0.94 0.69-0.01 1.54 1.44 1.89 3.23 0.35 1.79 1.25 4.15 2 5.25 0.76 1.1 1.03 2.41 0.62 2.91-0.44 0.52-0.02 0.63 0.99 0.25 0.96-0.36 1.97-0.21 2.25 0.34 0.27 0.55-0.06 1.19-0.75 1.43-0.75 0.26-0.44 0.68 0.75 1.03 1.45 0.43 2.34 2.11 3.25 6.07 0.92 4.03 1.84 5.72 3.5 6.44 1.24 0.53 2.93 1.54 3.77 2.25 0.97 0.81 1.63 3.46 1.83 7.28 0.18 3.3 0.73 6.79 1.23 7.75 0.59 1.13 0.57 1.57-0.08 1.25-0.55-0.27-0.99-0.16-0.97 0.25 0.01 0.41 1.24 2.32 2.73 4.25 2.51 3.27 2.68 4.1 2.49 12.5-0.11 4.95-0.46 12.82-1.37 26l-15.69 3.19c-8.63 1.76-16.7 2.99-17.94 2.75-2.02-0.4-2.25-1.02-2.24-6.19 0.01-3.16 0.45-12.05 0.99-19.75 0.54-7.7 1.66-25.48 2.49-39.5 0.83-14.03 1.61-26.34 1.74-27.37 0.16-1.31 0.54-1.55 1.25-0.81zm115.06 38.18c0.22 0 0.2 3.94-0.04 8.75-0.25 4.81-0.69 12.46-0.98 17-0.48 7.55-0.71 8.29-2.77 8.72-1.24 0.27-7.43 1.42-13.75 2.56-6.33 1.14-12.97 2.39-18.04 3.47l0.02-7.25c0.02-6.16 0.32-7.44 2.02-8.5 1.11-0.69 2.01-1.81 2-2.5 0-0.69 0.67-1.48 1.5-1.75 0.82-0.27 1.45-0.16 1.38 0.25-0.06 0.41-0.06 1.43 0.02 2.25 0.12 1.33 0.24 1.33 1.1 0 0.53-0.82 0.98-2.74 0.98-4.25 0.01-1.73 0.67-2.95 1.77-3.3 0.96-0.3 2.2-0.49 2.75-0.42 0.55 0.08 1.22-0.35 1.5-0.96 0.27-0.6 1.62-1.25 3-1.44 1.37-0.18 3.75-0.97 5.28-1.73 1.53-0.77 2.76-1.74 2.75-2.15-0.02-0.41 0.31-0.67 0.72-0.58 0.41 0.1 1.87-0.37 3.25-1.03 1.37-0.67 3.09-2.55 3.82-4.18 0.72-1.63 1.5-2.96 1.72-2.96zm204.21 12.09c0.14-0.05 0.25 0.59 0.25 1.41 0 0.82-0.45 1.27-1 1-0.55-0.27-1-0.05-1 0.5 0 0.55-1.35 1.23-3 1.5-1.65 0.27-3 0.95-3 1.5 0 0.55 0.79 0.71 1.75 0.35 0.96-0.36 3.32-0.85 5.25-1.09 2.27-0.28 3.76 0.04 4.23 0.9 0.41 0.74 0.75 1.9 0.75 2.59 0.01 0.69-0.43 1.02-0.98 0.75-0.55-0.27-1-0.05-1 0.5 0 0.55-1.35 1.23-3 1.5-1.65 0.27-3.21 1.06-3.47 1.75-0.25 0.69-4.64 2.75-9.75 4.59-5.1 1.83-16.43 6.56-41.07 17.66l-4.11 11.68c-2.25 6.43-3.88 11.91-3.6 12.19 0.27 0.28 7.02-1.71 15-4.41 7.97-2.71 15.17-4.7 16-4.44 0.82 0.27 1.95 0.11 2.5-0.36 0.55-0.47 1.67-1.09 2.5-1.38 0.88-0.31 1.5 0.06 1.5 0.9 0 0.9-0.64 1.22-1.75 0.87-1.44-0.45-1.67-0.06-1.3 2.2 0.25 1.51-0.08 3.39-0.75 4.16-1.02 1.2-0.86 1.24 1.05 0.25 1.24-0.64 2.25-1.61 2.25-2.16 0-0.55-0.56-1.19-1.25-1.42-0.69-0.23-0.46-0.46 0.5-0.5 1.27-0.06 1.68 0.58 1.5 2.31-0.18 1.71-1.19 2.72-3.5 3.5-1.79 0.61-3.24 1.67-3.23 2.36 0 0.69-2.81 2.68-6.25 4.43-3.45 1.76-11.45 5.27-17.77 7.82-6.33 2.55-12.18 5.3-13 6.12-0.83 0.82-2.29 3.61-3.25 6.19-0.96 2.58-1.75 5.7-1.75 6.94 0 1.58-0.59 2.25-2 2.25-1.1 0-2.11-0.46-2.25-1.02-0.14-0.57-2.05-1.19-4.25-1.4-3.81-0.35-4.02-0.22-4.5 2.77-0.34 2.14-1.13 3.23-2.5 3.44-1.13 0.18-1.57-0.03-1-0.49 0.55-0.44 1.06-2.15 1.12-3.8 0.07-1.65 0.21-4.8 0.31-7 0.09-2.2-0.11-5.8-0.47-8-0.58-3.68-0.34-4.26 2.95-7.25 1.98-1.79 3.58-3.81 3.58-4.5-0.01-0.69 1.54-6.2 3.45-12.25 3.15-9.97 3.34-11.21 2.02-13.25-0.8-1.24-1.46-3.49-1.47-5 0-1.51 0.76-3.88 1.7-5.25 0.93-1.38 2.62-3.3 3.75-4.28 1.13-0.98 2.4-1.77 2.81-1.75 0.41 0.02 0.52-0.42 0.25-0.97-0.28-0.55 0.17-1.23 1-1.5 0.82-0.27 1.72-1.85 2-3.5 0.28-1.71 1.68-3.88 3.25-5.03 1.51-1.12 3.42-2.03 4.25-2.01 0.82 0.01 3.3 0.91 5.5 1.99 2.53 1.25 4.55 1.66 5.5 1.13 0.82-0.46 9.15-3.35 18.5-6.42 9.35-3.07 19.92-6.46 23.5-7.53 3.57-1.07 6.61-1.99 6.75-2.04zm22 0.62c0.14 0.16 0.02 0.74-0.25 1.29-0.28 0.55-2.41 1.32-4.75 1.72-2.34 0.39-4.7 0.74-5.25 0.78-0.55 0.03-1.45 0.34-2 0.68-0.55 0.35-1-0.19-1-1.19 0-1.01 0.67-1.86 1.5-1.9 0.83-0.04 3.75-0.43 6.5-0.87 2.75-0.45 5.11-0.67 5.25-0.51zm-195.9 9.29c0.59 0 0.85 1.2 0.58 2.75-0.26 1.51-0.65 3.43-0.87 4.25-0.22 0.82-0.48 1.5-0.57 1.5-0.08 0-0.23 1.03-0.32 2.28-0.1 1.25-0.85 2.71-1.67 3.23-1.33 0.85-1.33 0.96 0 0.93 1.2-0.02 1.25 0.23 0.26 1.27-0.69 0.71-1.03 1.52-0.77 1.79 0.26 0.27-0.14 2.75-0.89 5.5-0.75 2.75-2.43 9.62-3.73 15.26-1.3 5.65-2.6 10.26-2.87 10.25-0.28-0.01-0.64 1.67-0.82 3.74-0.17 2.06-0.59 4.2-0.92 4.75-0.34 0.55-0.72 2.35-0.86 4-0.13 1.65-0.74 5.7-1.35 9-0.62 3.3-1.43 6.45-1.81 7-0.38 0.55-0.57 1.68-0.43 2.5 0.14 0.82-0.45 3.52-1.3 6-0.85 2.48-1.54 5.96-1.53 7.75 0.01 1.79-0.43 3.48-0.98 3.75-0.55 0.27-0.81 1.06-0.57 1.75 0.23 0.69-0.39 5.3-1.38 10.25-1 4.95-2.59 12.6-3.53 17-0.95 4.4-2.48 10.02-3.41 12.5-1.11 2.95-2.88 5.28-5.15 6.78-1.9 1.25-4.92 2.26-6.71 2.25-1.79-0.02-4.89-0.82-6.89-1.78-2-0.96-4.25-2.99-5-4.5-0.75-1.51-1.47-3.57-1.61-4.58-0.14-1.01-0.75-2.47-1.37-3.25-0.61-0.78-2.26-5.02-3.66-9.42-1.4-4.4-3.44-11.15-4.53-15-1.09-3.85-2.52-9.48-3.17-12.5-0.74-3.42-1.54-5.12-2.1-4.5-0.5 0.55-3.21 10.23-6.02 21.5-2.81 11.27-5.48 20.73-5.93 21-0.46 0.27-0.82 1.85-0.79 3.5 0.02 1.65-0.46 4.24-1.07 5.75-0.61 1.51-1.12 3.76-1.14 5-0.01 1.24-0.8 3.05-1.75 4.03-0.94 0.98-2.17 1.76-2.72 1.74-0.55-0.03-0.33-0.47 0.5-0.98 0.82-0.51 1.17-1.29 0.76-1.73-0.41-0.45-1.67 0.09-2.79 1.19-1.12 1.1-2.02 2.56-2 3.25 0.02 0.82-1.2 1.16-3.54 1-3.27-0.23-3.52-0.46-2.95-2.75 0.35-1.38 0.61-3.51 0.58-4.75-0.04-1.24 0.84-7.54 1.95-14 1.11-6.46 5.88-27.27 10.61-46.25 4.73-18.98 9.03-34.95 9.56-35.5 0.54-0.55 2.4-1.5 4.15-2.12 2.04-0.72 4.77-0.81 7.67-0.27 2.47 0.46 5.05 1.41 5.73 2.11 0.67 0.71 1.92 5.78 2.77 11.28 0.85 5.5 1.75 11.8 1.99 14 0.24 2.2 0.87 6.48 1.39 9.5 0.53 3.02 1.5 7.75 2.15 10.5 0.65 2.75 1.26 5.68 1.35 6.5 0.09 0.82 0.98 3.98 1.97 7 0.99 3.02 2.33 6.76 2.98 8.29 0.64 1.53 1.51 2.77 1.92 2.75 0.41-0.02 3.26-10.5 6.33-23.29 3.06-12.79 5.99-24.04 6.5-25 0.5-0.96 1.17-3.44 1.47-5.5 0.3-2.06 0.76-3.98 1.02-4.25 0.27-0.27 0.47 0.06 0.46 0.75-0.02 0.73 1.22 1.25 2.97 1.25 2.83 0 3-0.22 3-4 0-3.48-0.29-4-2.25-4-1.33 0-2.25-0.61-2.25-1.49 0-0.82 0.45-1.66 1-1.88 0.55-0.21 0.95-1.9 0.89-3.76-0.07-1.85 0.41-4.05 1.05-4.87 0.64-0.82 1.3-3.07 1.46-5 0.16-1.93 1.83-8 3.71-13.5 1.87-5.5 3.8-10.23 4.27-10.5 0.47-0.27 1.14-1.51 1.49-2.75 0.36-1.29 1.38-2.22 2.38-2.17 0.96 0.04 1.19 0.27 0.5 0.5-0.69 0.23-1.03 0.87-0.75 1.42 0.27 0.55 0.05 1-0.5 1-0.55 0-1 0.68-1 1.5 0 1.06 0.89 0.69 3.03-1.25 1.67-1.51 3.02-3.09 3-3.5-0.02-0.41-1.16-0.75-2.53-0.75-1.38 0-2.28-0.45-2-1 0.27-0.55-0.06-1.19-0.75-1.42-0.69-0.23-0.46-0.46 0.5-0.5 0.96-0.04 1.75 0.37 1.75 0.92 0 0.55 1.01 0.96 2.25 0.92 1.24-0.04 1.69-0.27 1-0.5-0.88-0.29-0.65-1.02 0.75-2.42 1.1-1.1 1.77-2.68 1.5-3.5-0.28-0.82-0.05-1.5 0.5-1.5 0.55 0 0.77-0.45 0.5-1-0.28-0.55-0.05-1 0.5-1 0.55 0 0.73-0.45 0.4-1-0.33-0.55-0.13-1 0.45-1zm-5.89 0c0.43 0 0.67 1.24 0.53 2.75-0.15 1.51-0.31 2.86-0.38 3-0.06 0.14-0.22 0.77-0.36 1.42-0.14 0.64-0.81 1.31-1.5 1.5-0.69 0.18-1.25-0.56-1.25-1.67 0-1.1 0.45-2 1-2 0.55 0 0.77-0.45 0.5-1-0.28-0.55-0.24-1.68 0.08-2.5 0.33-0.82 0.94-1.5 1.38-1.5zm29.54 16.16c3.6-0.13 5 0.34 7 2.34 1.37 1.37 2.5 3.4 2.5 4.5 0 1.1-1.32 7.06-2.94 13.25-1.62 6.19-4.53 16.43-6.47 22.75-1.94 6.32-3.3 11.73-3.02 12 0.28 0.27 9.37-8.4 20.22-19.29 10.84-10.88 20.05-19.54 20.46-19.25 0.41 0.3 1.65 0.09 2.75-0.46 1.1-0.55 2-1.68 2-2.5 0-0.89 1.22-1.7 3-2 1.65-0.27 3.01-0.84 3.02-1.25 0.01-0.41-0.45-1.2-1.03-1.75-0.71-0.69-0.35-1.63 3.31-5l-0.65 2.75c-0.49 2.07-0.28 2.75 0.85 2.75 0.82 0 1.57 0.79 1.66 1.75 0.08 0.96 0.13 2.2 0.11 2.75-0.03 0.55-0.33 2.35-0.67 4-0.34 1.65-1.37 4.12-2.29 5.5-0.92 1.37-8.23 9.17-16.24 17.32-8.02 8.16-15.25 15.14-16.07 15.51-0.83 0.38-6.45 5.75-12.5 11.93-6.82 6.97-10.62 11.57-10 12.1 0.55 0.47 3.7 1.38 7 2.03 3.3 0.64 6.3 1.49 6.66 1.89 0.37 0.4 0.79 1.84 0.93 3.22 0.15 1.37-0.04 3.96-0.41 5.75q-0.68 3.26-2.43 3.23c-0.96-0.01-4.9-0.47-8.75-1.02-3.85-0.55-7.79-1.22-8.75-1.48q-1.75-0.49-3.22 2.27c-0.81 1.51-1.14 3.1-0.75 3.53 0.4 0.43 0.16 0.76-0.53 0.75-0.69-0.02-1.03 0.65-0.75 1.47 0.27 0.82 0.05 1.27-0.5 1-0.55-0.27-1-0.05-1 0.5 0 0.59-1.34 0.75-3.25 0.38-1.79-0.33-3.81-1.01-4.5-1.5-0.69-0.48-0.92-1.44-0.51-2.13q0.73-1.24-0.5-0.5c-0.68 0.41-1.02 1.2-0.74 1.75 0.27 0.55-0.06 1.27-0.75 1.61-0.69 0.33-1.7 0.12-2.25-0.46q-1.01-1.06 0.5-2.76c0.82-0.93 1.36-1.97 1.19-2.29-0.18-0.33-0.05-2.17 0.28-4.1q0.6-3.5-0.94-5.75c-0.84-1.24-1.54-3.49-1.55-5-0.01-1.72 1.02-3.75 2.75-5.41 2.1-2.02 3.22-4.67 4.63-11 1.02-4.59 4.57-18.47 7.89-30.84 3.31-12.38 6.5-24.41 7.08-26.75 0.59-2.33 1.65-5.07 2.37-6.08 0.9-1.27 2.7-1.9 5.8-2.01zm55.53 6.09c0.53 0.96 1.76 1.74 2.72 1.72 0.96-0.01 2.54-0.8 3.5-1.75 1.67-1.63 1.74-1.6 1.5 0.62-0.14 1.29-2.28 4.6-4.75 7.36-4.38 4.89-4.5 4.94-4.33 2.16 0.09-1.57 0.22-4.88 0.28-7.36 0.09-3.48 0.33-4.1 1.08-2.75zm-253.91 30.83c0.33-0.04 0.66 2.96 0.81 13.42l-14.93 4.5 2.03 2.75c1.12 1.51 2.03 3.65 2.01 4.75-0.02 1.1-0.94 6.05-2.05 11-1.11 4.95-3.13 14.18-4.48 20.5-1.34 6.32-3.47 15.69-4.73 20.81-1.25 5.13-2.73 9.27-3.28 9.21-0.55-0.05-1.23 1.27-1.5 2.93-0.49 2.98-0.55 3.01-3.25 1.54-2.07-1.12-2.75-1.18-2.77-0.24q-0.01 1.24-0.96-0.25c-0.52-0.82-1.98-1.56-3.24-1.62-1.25-0.07-2.73-0.2-3.28-0.28-0.64-0.1-0.56-2.18 0.23-5.87 0.68-3.15 1.44-7.3 1.69-9.23 0.25-1.93 1.19-6.65 2.09-10.5 0.9-3.85 2.3-10.82 3.1-15.5 0.81-4.68 1.79-11.77 2.18-15.76 0.39-3.99 0.37-7.25-0.04-7.25-0.41 0.01-4.91 1.64-10 3.64-5.09 2-11.05 4.53-13.25 5.62-2.2 1.09-6.59 3.73-9.75 5.87-3.16 2.13-6.2 3.65-6.75 3.38-0.55-0.27-0.78 0.18-0.5 1 0.32 0.95-0.32 1.71-1.75 2.08-1.24 0.33-3.38 0.33-4.75 0.01-1.38-0.31-3.63-1.74-5-3.16-1.65-1.71-2.5-3.73-2.5-5.93 0-2.05 0.84-4.24 2.17-5.67 1.2-1.28 6.37-4.42 11.5-6.96 5.13-2.55 10.9-5.31 12.83-6.13 1.92-0.81 9.12-3.53 16-6.04 6.87-2.51 18.57-6.2 26-8.21 7.42-2.02 13.95-3.81 14.5-4 0.55-0.18 1.28-0.37 1.62-0.41zm69.38 1.03c1.1-0.07 3.46 1.23 5.25 2.88 1.83 1.69 3.24 3.99 3.24 5.26-0.01 1.24-0.46 3.6-0.99 5.25-0.54 1.65-2.15 6.82-3.57 11.5-1.42 4.68-3.46 12.55-4.54 17.5-1.09 4.95-2.43 11.93-2.99 15.5-0.56 3.57-1.68 11.23-2.49 17-0.81 5.77-1.61 13.2-1.78 16.5-0.17 3.3-0.39 7.91-0.47 10.25-0.1 2.72-0.61 4.21-1.41 4.13-0.69-0.06-2.04-0.06-3 0-1.42 0.1-1.75 1.07-1.75 5.12 0 4.67-0.13 4.93-2 4-1.1-0.55-2.45-0.77-3-0.5-0.55 0.27-1.28-0.29-1.62-1.25-0.34-0.96-0.9-7.31-1.25-14.1-0.35-6.79-0.86-12.51-1.13-12.71-0.28-0.19-2.27 3.11-4.42 7.35-2.16 4.24-5.65 10.52-7.75 13.96-2.11 3.44-3.83 6.7-3.83 7.25 0 0.55-0.9 1.45-2 2-1.1 0.55-1.9 1.34-1.79 1.75 0.12 0.41-0.39 1.87-1.12 3.25-0.73 1.37-2.52 3.78-3.96 5.34-1.45 1.56-3.87 3.47-5.38 4.25-1.51 0.78-4.89 1.41-7.5 1.41-2.99-0.01-5.95-0.75-8-2-1.79-1.1-3.88-3.01-4.66-4.25-0.77-1.24-1.96-4.95-2.63-8.25-0.79-3.89-0.99-9.69-0.58-16.5 0.35-5.77 1.54-15.68 2.66-22 1.11-6.32 2.43-14.2 2.93-17.5 0.51-3.3 1.4-7.24 1.98-8.75 0.58-1.51 1.05-3.88 1.05-5.25 0-1.38 0.44-3.29 0.97-4.25 0.54-0.96 1.88-4.9 2.99-8.75 1.1-3.85 2-8.13 2-9.5-0.01-1.38 1.01-3.5 2.26-4.72 1.26-1.23 3.85-2.38 5.78-2.57 1.92-0.19 4.62 0.01 6 0.45 1.37 0.44 3.02 1.82 3.66 3.07 0.98 1.91 0.38 4.71-3.79 17.77-2.72 8.52-6.57 23.38-8.54 33-2.93 14.25-3.62 19.86-3.71 30.19-0.07 7.23 0.31 13.18 0.88 13.82 0.71 0.79 1.9 0.02 4.12-2.7 1.72-2.09 4.91-6.74 7.09-10.31 2.18-3.57 7.78-14.15 12.44-23.5 4.66-9.35 10.2-21.05 12.31-26 2.1-4.95 4.91-12.15 6.23-16 1.32-3.85 3.31-11.27 4.41-16.5 1.11-5.23 2.23-11.07 2.5-13 0.26-1.93 1.48-4.47 2.69-5.65 1.22-1.18 3.11-2.37 4.21-2.63 1.1-0.27 2.9-0.54 4-0.61zm278.9 17.89c0.23 0 0.23 1.35 0 3-0.23 1.73 0.13 3.31 0.85 3.74 0.74 0.44 0.97 0.33 0.57-0.25-0.38-0.54-0.29-1.67 0.19-2.49 0.48-0.82 1.13-1.16 1.43-0.75 0.31 0.41 0.11 1.65-0.44 2.75-0.7 1.4-1.53 1.78-2.75 1.27-1.37-0.57-1.54-0.42-0.75 0.69 0.8 1.13 0.56 1.28-1.25 0.72-1.61-0.48-2.51-0.18-3.17 1.07-0.51 0.96-1.3 1.42-1.75 1.01-0.46-0.4-1.43 0.05-2.15 1-0.73 0.96-0.96 1.07-0.5 0.25 0.63-1.14 0.47-1.28-0.68-0.6-1.31 0.78-1.28 1.03 0.21 1.99 0.94 0.61 1.73 1.44 1.75 1.85 0.02 0.41-0.41 0.52-0.96 0.25-0.55-0.27-1-0.05-1 0.5 0 0.55-0.45 0.77-1 0.5-0.55-0.27-1-0.05-1 0.5 0 0.55-0.45 1-1 1-0.59 0-0.9-2.68-0.75-6.55 0.22-5.73 0.47-6.49 2-6 0.96 0.3 1.68 0.17 1.6-0.3-0.08-0.46 1.83-1.57 4.25-2.46 2.42-0.89 4.74-1.41 5.15-1.16 0.41 0.26 0.75 0.02 0.75-0.53 0-0.55 0.18-1 0.4-1zm-21.19 9.35c1.81-0.08 2.61 0.03 1.79 0.25-0.83 0.23-1.82 2.1-2.21 4.16-0.48 2.54-0.32 3.96 0.5 4.43 0.66 0.39 1.44 0.47 1.71 0.2 0.27-0.28-0.18-0.92-1-1.43-1.28-0.79-1.24-0.93 0.25-0.94 0.96-0.01 1.94 0.54 2.16 1.23 0.23 0.69 0.06 1.93-0.38 2.75-0.45 0.83-1.31 1.16-1.92 0.75-0.65-0.44-1.32-0.02-1.62 1-0.28 0.96-0.84 1.42-1.25 1.01-0.41-0.41-1.32-0.19-2.03 0.5-0.72 0.68-1.26 0.79-1.22 0.24 0.04-0.55-0.85-0.1-1.99 1-1.23 1.19-2.05 1.5-2.03 0.75 0.02-0.69-0.42-1.25-0.97-1.25-0.55 0-0.99 0.79-0.97 1.75 0.02 0.96-0.77 2.5-1.75 3.42-0.98 0.92-2.44 1.82-3.24 2-0.81 0.18-2.61 1.37-4 2.65-1.4 1.27-4.12 3.14-6.04 4.14-1.93 1.01-7.77 5.08-13 9.06-5.23 3.97-12.54 10.09-16.25 13.6-4.93 4.66-7.49 6.38-9.5 6.38-1.51-0.01-4.21-0.91-6-2-1.79-1.1-3.81-3.1-4.5-4.45-1.1-2.16-0.94-2.83 1.39-5.75 2.39-3 2.62-4.04 2.5-11.46-0.08-4.49 0.09-8 0.36-7.81 0.27 0.19 1.74-0.08 3.25-0.59 2.03-0.7 2.75-0.61 2.76 0.31 0 0.81 1.24 1.16 3.5 1 2.91-0.21 3.49 0.08 3.49 1.75 0 1.1 0.34 1.89 0.75 1.75 0.41-0.14 5.25-3.25 10.75-6.91 5.5-3.66 13.94-8.72 18.75-11.24 4.81-2.53 9.54-4.59 10.5-4.57 0.96 0.01 1.4-0.32 0.98-0.75-0.43-0.43 2.37-2.13 6.21-3.78 3.85-1.65 8.47-3.07 10.27-3.15zm-101.21 19.65l5.75-0.01c3.16-0.01 7.22 0.33 12.3 1.51l-0.02 13-4.76-0.76c-2.63-0.41-6.68-0.75-13.27-0.74zm-322.97 51c0.44 0 0.61 0.9 0.38 2-0.24 1.18 0.21 2.21 1.09 2.5 0.83 0.27 1.5 1.51 1.5 2.75 0 1.24-0.91 5.4-2.03 9.25-1.19 4.12-2.25 11.53-2.58 18-0.46 9.21-0.21 12.22 1.52 18.5 1.13 4.13 3.31 9.2 4.83 11.28 1.52 2.08 3.89 4.27 5.26 4.86 2.07 0.89 3.57 0.58 8.68-1.78 5.47-2.53 6.8-3.76 11.5-10.64 2.93-4.28 5.91-8.44 6.64-9.25 0.73-0.81 1.07-1.47 0.75-1.47-0.31 0 0.99-3.49 2.91-7.75 1.91-4.26 3.93-7.86 4.5-8 0.56-0.14 0.79-0.81 0.51-1.5-0.3-0.72 0.33-1.36 1.5-1.5 1.3-0.16 2.19 0.45 2.51 1.75 0.28 1.1 0.95 2 1.5 2 0.55 0 1.16-0.56 1.36-1.25 0.19-0.69 0.19-0.46 0 0.5-0.25 1.21 0.56 2.06 2.64 2.75 1.65 0.55 3 1.68 3 2.5 0 0.82-1.22 4.31-2.72 7.75-1.49 3.44-3.35 6.93-4.13 7.75-0.78 0.82-2.02 2.63-2.75 4-0.74 1.38-1.01 2.91-0.62 3.41 0.4 0.5 0.27 0.64-0.28 0.31-0.55-0.32-1.56 0.28-2.25 1.34-1 1.55-1 1.8 0 1.25 0.77-0.43 0.68 0.05-0.24 1.25-0.83 1.07-3.53 4.1-6 6.74-2.48 2.64-6.53 5.86-9.01 7.16-2.47 1.3-7.42 2.91-11 3.59-5.56 1.04-7.33 0.98-12.25-0.41-3.16-0.9-6.33-2.2-7.04-2.89-0.71-0.69-2.18-1.74-3.25-2.33-1.08-0.6-3.32-3.3-4.98-6-1.67-2.71-3.69-7.85-4.5-11.42-0.82-3.6-1.44-10.96-1.4-16.5 0.05-5.5 0.66-12.7 1.36-16 0.7-3.3 2.57-9.49 4.16-13.75 1.6-4.26 3.45-8.09 4.13-8.5 0.87-0.53 1.02-0.24 0.5 1-0.55 1.33-0.25 1.75 1.27 1.75 1.11 0 2-0.67 2-1.5 0-0.9-0.5-1.22-1.25-0.81-0.88 0.49-0.84 0.19 0.11-1 0.75-0.93 1.73-1.69 2.17-1.69z"/>
		<path id="Path 5" class="s1" d="m364.07 57.75c-0.04 0.69-0.41 1.05-0.82 0.8-0.41-0.24-2.59 0.77-4.84 2.25-2.25 1.49-5.52 3.94-7.25 5.45-1.74 1.51-3.16 3.2-3.16 3.75 0 0.55-0.45 1-1 1-0.55 0-1.19 0.79-1.41 1.75-0.23 0.96 0.11 2.3 0.75 2.98 0.64 0.68 0.82 1.58 0.41 2-0.41 0.43-0.98 0.55-1.25 0.27-0.28-0.28-0.61-1.48-0.75-2.67-0.18-1.54-0.61-1.9-1.5-1.25-0.69 0.51-1.02 1.37-0.75 1.92 0.27 0.55 0.05 1-0.5 1-0.55 0-1.75 1.24-2.67 2.75-0.93 1.51-1.71 3.31-1.75 4-0.05 0.69-0.42 1.25-0.83 1.25-0.41 0-0.52 0.45-0.25 1 0.27 0.55 0.05 1-0.5 1-0.55 0-0.77 0.45-0.5 1 0.27 0.55 0.95 1 1.5 1 0.55 0 1-0.9 1-2 0-1.1 0.51-1.89 1.13-1.75 0.62 0.14 1.29 1.6 1.5 3.25 0.2 1.65 0.61 3.22 0.9 3.5 0.29 0.28 0.51-1.41 0.5-3.75-0.02-2.34 0.42-4.25 0.97-4.25 0.56 0 0.78 1.33 0.5 3-0.42 2.52-0.28 2.8 0.9 1.75 0.77-0.69 1-1.36 0.5-1.5-0.49-0.14-0.67-0.93-0.4-1.75 0.27-0.82 1.18-1.5 2-1.5 0.83 0 1.5-0.89 1.5-2 0-1.11 0.67-2 1.5-2 0.82 0 1.5-0.45 1.5-1 0-0.55-0.68-0.78-1.5-0.5-0.82 0.28-1.51 0.16-1.52-0.25-0.01-0.41 0.53-1.31 1.2-2 0.67-0.69 1.8-1.25 2.52-1.25 0.72 0 1.07 0.68 0.8 1.5q-0.49 1.49 0.73 0.75c0.87-0.53 1.02-0.24 0.5 1-0.41 0.99-0.29 1.75 0.27 1.75 0.55 0 1-0.45 1-1 0-0.55 0.45-0.78 1-0.5 0.55 0.28 0.89-0.06 0.75-0.75-0.14-0.71 0.93-1.36 2.5-1.5 2.04-0.19 2.99 0.33 3.69 2 0.72 1.74 0.95 1.85 1 0.5 0.03-0.96 0.51-1.75 1.06-1.75 0.55 0 0.77 0.45 0.5 1-0.27 0.55-0.27 1.68 0 2.5 0.27 0.82 1.4 1.5 2.5 1.5 1.1 0 2.23 0.45 2.5 1 0.27 0.55 1.4 0.78 2.5 0.5 1.1-0.28 2-0.05 2 0.5 0 0.55-0.45 1-1 1-0.55 0-0.77 0.45-0.5 1 0.3 0.61 2.17 0.23 4.75-0.95 2.34-1.08 5.82-2.22 7.75-2.55 1.93-0.32 4.74-0.12 6.25 0.46 2.36 0.89 2.74 0.79 2.65-0.71-0.05-0.96-0.41-2.88-0.8-4.25-0.59-2.13-0.8-2.24-1.4-0.75-0.38 0.96-1.26 1.71-1.95 1.67-1-0.06-1-0.16 0-0.5 0.69-0.23 1.25-1.1 1.25-1.92 0-0.82-0.56-1.48-1.25-1.47-0.69 0.02-2.49-0.88-4-2-1.51-1.11-2.75-1.58-2.75-1.03 0 0.55-0.56 1.01-1.25 1.02-0.69 0.01-3.73-2.44-6.75-5.44-3.02-3.01-6.06-6.16-6.75-7.02-0.69-0.86-1.25-2.01-1.25-2.56 0-0.55-0.45-1-1-1-0.55 0-1.03 0.79-1.07 1.75-0.06 1.5-0.2 1.46-0.93-0.25-0.47-1.1-0.89-1.44-0.93-0.75zm147.96 5.56c-1.29 2.31-2.72 5.43-3.19 6.94-0.66 2.15-0.51 2.75 0.66 2.75 0.82 0 1.84 0.55 2.25 1.23 0.53 0.87 0.24 1.02-1 0.5-0.96-0.4-1.75-0.51-1.75-0.23 0 0.28 0.68 1.18 1.5 2q1.5 1.5 5 1c2.18-0.31 3.78-0.04 4.25 0.73 0.53 0.87 0.24 1.02-1 0.5-1.12-0.47-1.77-0.28-1.79 0.52-0.03 0.69 0.65 1.81 1.5 2.5 0.84 0.69 1.27 1.81 0.93 2.5-0.33 0.69-0.33 2.04 0 3 0.51 1.45 0.89 1.54 2.26 0.5 1.44-1.09 1.57-0.97 1 1-0.37 1.27-0.21 2.25 0.35 2.25 0.55 0 0.66 0.56 0.25 1.24q-0.74 1.23 0.5 0.5c0.69-0.41 1.25-0.29 1.25 0.26 0 0.55-0.45 1-1 1-0.55 0-0.99 1.01-0.98 2.25 0.01 1.75 0.2 1.92 0.87 0.75 0.73-1.29 0.94-1.25 1.48 0.25q0.63 1.75-0.87 1.75c-0.83 0-1.5 0.45-1.5 1 0 0.55 0.9 0.78 2 0.5 1.14-0.29 1.79-0.07 1.5 0.5-0.27 0.55 0.17 1 1 1 0.83 0 1.73 0.68 2 1.5 0.27 0.82 0.05 1.72-0.5 2-0.55 0.28-1 0.05-1-0.5 0-0.55-0.67-0.78-1.5-0.5-0.83 0.28-1.27 0.05-1-0.5 0.27-0.55 0.12-1-0.33-1-0.46 0-1.13 0.34-1.5 0.75-0.36 0.41-0.1 1.33 0.59 2.04 0.99 1.03 0.98 1.54-0.03 2.5-0.99 0.95-1.28 0.89-1.35-0.29-0.04-0.82-0.41-0.38-0.82 1-0.41 1.37-0.37 3.29 0.1 4.25 0.46 0.96 0.84 2.43 0.84 3.25 0 0.89-0.61 1.3-1.5 1-1.1-0.37-1.7 0.59-2.25 3.61-0.41 2.26-1.31 4.51-2 5-0.74 0.53-0.95 1.61-0.52 2.64 0.58 1.39 0.42 1.54-0.74 0.75-1.09-0.74-1.28-0.67-0.73 0.25 0.41 0.69 1.41 1.03 2.24 0.75 0.83-0.28 1.5-0.05 1.5 0.5 0 0.55-0.45 0.78-1 0.5-0.55-0.28-1.23-0.05-1.5 0.5-0.27 0.55-1.06 0.85-1.75 0.66-0.69-0.18-0.91-0.18-0.5 0 0.41 0.19 0.75 0.79 0.75 1.34 0 0.55-0.56 0.83-1.25 0.63-0.82-0.24-1.25 0.74-1.25 2.84 0 2.66-0.31 3.11-1.83 2.62-1.68-0.54-1.64-0.15 0.5 4.64 1.28 2.87 3 5.25 3.83 5.29 0.83 0.04 2.17-0.66 3-1.56 1.23-1.33 1.27-1.98 0.25-3.54-0.69-1.06-1.02-1.92-0.75-1.92 0.27 0 1.51 1.12 2.75 2.48 1.24 1.37 2.6 2.16 3.04 1.75 0.43-0.4-0.09-1.18-1.16-1.73-1.82-0.93-1.69-1.25 1.96-4.75 2.15-2.06 3.91-3.3 3.91-2.75 0 0.55 1.69-0.34 3.75-1.97 2.06-1.64 4.1-2.65 4.53-2.25 0.43 0.39 0.76 1.73 0.75 2.97-0.02 1.24 0.31 2.18 0.72 2.1 0.41-0.09 3.08 0.25 5.93 0.75 3.07 0.53 4.9 1.31 4.51 1.9-0.4 0.59-0.16 0.69 0.57 0.25 0.71-0.43 1.88-0.01 2.75 1 1.38 1.61 1.43 1.55 0.62-0.75-0.48-1.38-5.02-10.38-10.08-20-5.07-9.63-10.2-18.4-11.42-19.5-1.21-1.1-2.17-2.68-2.14-3.5 0.03-0.82-0.63-2.1-1.46-2.82-1.28-1.11-1.28-1.19-0.04-0.5 1.05 0.58 1.27 0.45 0.75-0.43-0.41-0.69-0.18-2.01 0.51-2.94 1.05-1.42 1.01-1.57-0.25-0.92-0.83 0.43-0.54-0.04 0.63-1.05 1.18-1.01 4.56-5.44 7.53-9.84 2.97-4.4 6.11-9.13 6.98-10.5 1.58-2.5 1.58-2.5-2.28-2.75-2.88-0.19-3.86 0.13-3.86 1.25 0 1.26-0.52 1.32-3.25 0.35-1.79-0.62-3.83-1.64-4.54-2.25-1-0.85-1.28-0.64-1.23 0.9 0.06 1.84-0.16 1.78-2.71-0.64-1.52-1.45-3.78-2.91-5.02-3.25-1.24-0.33-3.06-1.48-4.06-2.55-1.77-1.89-1.85-1.85-4.16 2.25zm-18.86-0.23c-0.46 1.43-1.22 1.9-2.42 1.5-0.96-0.32-1.98-0.13-2.25 0.42-0.27 0.55-0.05 1 0.5 1 0.55 0-0.24 2.01-1.75 4.47-1.51 2.46-3.31 4.48-4 4.5-0.69 0.02-1.79 1.04-2.45 2.28-0.67 1.24-1.12 3.04-1 4q0.19 1.74-1.04 1-1.23-0.74-0.5 0.5c0.45 0.76-0.13 1.8-1.51 2.67-1.24 0.78-2.81 2.58-3.5 4-0.69 1.42-0.8 2.36-0.25 2.08 0.55-0.28 1-0.05 1 0.5 0 0.55-0.9 1.22-2 1.5-1.1 0.28-1.98 1.06-1.96 1.75 0.04 0.96-0.25 0.98-1.25 0.08-1.03-0.94-1.35-0.43-1.6 2.5-0.17 2.02-0.84 4.01-1.5 4.42-0.88 0.56-0.8 1.01 0.31 1.73 1.28 0.85 1.25 0.99-0.25 1-0.96 0.01-1.55 0.58-1.31 1.27 0.24 0.69 0.05 1.7-0.42 2.25-0.47 0.55-1.06 3.7-1.3 7-0.24 3.3-0.95 7.01-1.58 8.25-0.87 1.71-0.86 2.19 0.05 2 0.67-0.14 1.43 1.33 1.75 3.39 0.31 2.01 0.91 4.03 1.34 4.5 0.43 0.47 0.76-0.94 0.73-3.14-0.04-3.56 0.1-3.79 1.22-2.1 0.7 1.05 1.72 1.65 2.27 1.34 0.55-0.31 1.56 0.52 2.25 1.85 0.75 1.44 0.85 2.41 0.25 2.41-0.55 0-0.18 0.79 0.83 1.75 1 0.96 2.13 3.21 2.5 5 0.47 2.29 1.11 3.1 2.17 2.75 0.86-0.29 1.39 0.04 1.25 0.75-0.14 0.69-0.7 1.62-1.25 2.07-0.55 0.44 0.01 0.56 1.25 0.25 1.24-0.32 2.25-0.23 2.25 0.18 0 0.41 1.97 0.75 4.38 0.75 3.84 0 4.64-0.4 6.5-3.25 1.17-1.79 2.12-3.59 2.12-4 0-0.41-0.56-0.77-1.25-0.8-0.69-0.02-1.1-0.7-0.92-1.5 0.19-0.8-0.04-1.12-0.5-0.73-0.46 0.4-1.62 0.29-2.58-0.25q-1.74-0.97-1-2.57c0.61-1.31 0.37-1.45-1.25-0.78-1.65 0.69-1.87 0.53-1.25-0.9 0.49-1.12 0.32-1.68-0.5-1.6-0.69 0.06-1.81 0.06-2.5 0-0.69-0.07-1.25-0.8-1.25-1.62 0-0.82-0.45-1.28-1-1-0.55 0.28-1.01 0.16-1.02-0.25-0.01-0.41 0.53-1.31 1.2-2 0.94-0.96 0.94-1.25 0.02-1.25-0.66 0-1.2-0.68-1.2-1.5 0-0.82-0.56-1.69-1.25-1.92-0.93-0.32-0.86-0.69 0.25-1.46 1.3-0.9 1.25-1.21-0.4-2.33-1.3-0.88-1.62-1.72-1-2.65q0.9-1.36-0.6-2.24c-1.18-0.68-1.01-0.87 0.75-0.88 1.24-0.01 2.48-0.7 2.75-1.52 0.27-0.82 0.05-1.28-0.5-1-0.55 0.28-1.79 0.02-2.75-0.58-1.67-1.02-1.67-1.04 0-0.5 1.08 0.36 2.12-0.09 2.72-1.17 0.53-0.96 0.98-1.19 1-0.5 0.02 0.69 0.48 1.25 1.03 1.25 0.55 0 0.77-0.45 0.5-1-0.27-0.55-0.05-1 0.5-1 0.55 0 0.77-0.68 0.5-1.5-0.27-0.82-0.05-1.5 0.5-1.5 0.55 0 1.01 0.79 1.03 1.75 0.03 1.53 0.18 1.49 1.16-0.25 0.63-1.1 1.63-2.38 2.22-2.84 0.66-0.51 0.39-0.61-0.66-0.25q-1.74 0.58-1.75-0.91c0-1.06 0.66-1.33 2.25-0.92 1.29 0.33 2.77 0.01 3.46-0.75 0.67-0.73 1.47-2.9 1.77-4.83 0.31-1.93 0.97-7.1 1.47-11.5 0.51-4.4 1.11-11.04 1.34-14.75 0.23-3.71 0.23-6.75-0.01-6.75-0.24 0-0.74 0.94-1.11 2.08zm-332.22 36.95c0.03 0.53-0.4 0.75-0.95 0.47-0.55-0.28-1 0.18-1 1 0 0.82-0.34 1.49-0.75 1.49-0.41-0.01-1.49 1.23-2.39 2.75-1.03 1.75-1.69 5.32-1.79 9.76-0.08 3.85-0.36 8.91-0.61 11.25l-0.46 4.25c5.04-1.38 12.13-2.81 19-4.06 6.88-1.26 12.85-2.55 13.27-2.86 0.43-0.32 0.54-1.37 0.25-2.33-0.28-0.96-0.97-1.53-1.52-1.25-0.55 0.28-1-0.18-1-1 0-0.82-0.56-1.51-1.25-1.52q-1.25-0.01 0.25-0.98c1.33-0.86 1.33-0.97 0-0.95-0.82 0.01-3.51-2.36-5.97-5.27-2.46-2.9-3.66-4.6-2.66-3.78 1.64 1.36 1.76 1.33 1.22-0.25-0.37-1.11-1.23-1.55-2.34-1.21-0.96 0.3-2.42-0.18-3.25-1.05-1.19-1.26-1.64-1.32-2.17-0.29-0.54 1.04-0.98 1.05-2.25 0.05-0.87-0.69-1.33-1.81-1.02-2.5 0.3-0.69-0.17-1.57-1.05-1.97-0.88-0.39-1.58-0.28-1.56 0.25zm109.88 18.97c-0.23 6.32-0.06 11.61 0.38 11.75 0.43 0.14 0.57 0.7 0.29 1.25-0.31 0.61 0.75 0.8 2.75 0.47 3.14-0.51 3.19-0.47 1.25 1.14-1.63 1.35-1.67 1.54-0.25 1.02 0.96-0.34 1.75-0.18 1.75 0.37 0 0.55 0.68 0.78 1.5 0.5 0.83-0.28 1.5-0.05 1.5 0.5 0 0.55-0.56 1.19-1.25 1.42-0.69 0.23-0.12 0.45 1.25 0.48 1.38 0.04 3.05 0.64 3.73 1.33 0.68 0.7 1.58 0.94 2 0.54 0.43-0.4 0.1-1.43-0.73-2.29-1.34-1.4-1.31-1.56 0.25-1.52 0.96 0.02 1.98 0.94 2.25 2.04 0.28 1.1 0 2.11-0.61 2.25-0.74 0.17-0.58 1.54 0.51 4.25 0.88 2.2 1.94 3.66 2.35 3.25 0.41-0.41 1.33 0.49 2.03 2 0.71 1.51 1.3 3.43 1.33 4.25q0.06 1.45 0.47 0.25c0.34-1 0.74-1 2.01 0 1.38 1.08 1.48 0.98 0.78-0.75l-0.81-2c4.17 3.1 5.41 4.45 5.45 5 0.04 0.55-0.64 0.32-1.51-0.5-1.42-1.34-1.58-1.31-1.54 0.25 0.02 0.96 0.49 1.75 1.04 1.75 0.55 0 0.73 0.79 0.41 1.75-0.49 1.42-0.35 1.52 0.75 0.51 0.74-0.69 1.69-0.91 2.12-0.5 0.43 0.41 0.76-0.05 0.75-1.01-0.02-0.96 0.42-1.75 0.97-1.75 0.55 0 1.22-3.71 1.5-8.25 0.27-4.54 0.74-12.53 1.02-17.75 0.29-5.22 0.74-11.86 1-14.75 0.43-4.74 0.29-5.25-1.52-5.25-1.1 0-3.12 0.45-4.5 1-1.37 0.55-2.5 0.66-2.5 0.25 0-0.41-1.35-0.75-3-0.75-1.64 0-2.99 0.34-2.99 0.75-0.01 0.41-1.36 0.75-3.01 0.75-2.19 0-3.23-0.61-3.85-2.25-0.84-2.22-0.88-2.2-2.35 0.75-0.98 1.96-1.73 2.57-2.15 1.75-0.38-0.73-1.59-1.01-2.9-0.68-2.15 0.54-2.16 0.51-0.25-0.62 1.7-1 1.77-1.31 0.5-2.05-0.82-0.48-1.84-0.88-2.25-0.88-0.41-0.01-0.19 0.42 0.5 0.96 1 0.79 1 0.99 0 1-0.69 0.01-1.57-0.77-1.95-1.73-0.6-1.49-0.81-1.37-1.37 0.75l-0.66 2.5c-1.8-4.46-2.11-2.51-2.44 6.5zm56.9-1.3c-0.37 3.19-0.99 10.75-1.37 16.8-0.71 10.99-0.71 11 1.47 10.25 1.28-0.44 2.17-0.34 2.17 0.25 0 0.55-0.9 1.22-2 1.5-1.48 0.37-2.15 1.61-2.58 4.75-0.32 2.34-0.37 10.32-0.12 17.75 0.26 7.43 0.76 14.85 1.12 16.5 0.36 1.65 1.09 4.46 1.62 6.25 0.53 1.79 1.41 3.25 1.96 3.25 0.57 0 0.68-0.73 0.25-1.69-0.65-1.48-0.29-1.61 2.75-1.06 2.19 0.41 3.97 0.2 4.77-0.55 0.69-0.66 1.26-1.99 1.25-2.95-0.01-0.96 0.43-1.52 0.98-1.25 0.55 0.27 1.23-0.18 1.5-1 0.28-0.82 1.4-1.5 2.5-1.5 1.1 0 2.9-0.9 4-2 1.1-1.1 2.41-1.89 2.9-1.75 0.49 0.14 0.83-0.02 0.75-0.35-0.08-0.32 0.53-1.36 1.35-2.3 0.83-0.94 2.06-1.46 2.75-1.16 0.77 0.35 1.25-0.21 1.25-1.44 0-1.1-0.45-1.77-1-1.5-0.6 0.3-0.7-0.13-0.25-1.05 0.41-0.85 1.79-1.86 3.06-2.25 2.28-0.69 2.32-0.94 2.5-16.2 0.17-14.25 0.05-15.48-1.56-15.25-0.96 0.14-1.52-0.2-1.25-0.75 0.28-0.55 0.05-1-0.5-1-0.55 0-1 0.45-1 1 0 0.55-0.79 1.18-1.75 1.39-0.96 0.22-2.42 0.05-3.25-0.38-1.05-0.55-1.2-1.17-0.5-2.08 0.78-1.01 0.5-1.15-1.25-0.61-1.89 0.57-2.17 0.36-1.75-1.32 0.28-1.1 0.05-2-0.5-2-0.55 0-0.82 0.34-0.6 0.75 0.23 0.41-0.79 0.72-2.25 0.69-1.46-0.03-2.99 0.08-3.4 0.25-0.41 0.17-0.34 0.87 0.16 1.56q0.93 1.26-0.5 1.25c-0.99 0-1.41-1.25-1.41-4.25 0-2.34 0.45-4.25 1-4.25 0.55 0 0.78 0.9 0.5 2-0.31 1.23 0.08 2.19 1 2.5 0.83 0.28 1.5 0.05 1.5-0.5 0-0.55 0.34-0.82 0.75-0.6 0.41 0.21 1.43-0.33 2.25-1.2 1.35-1.44 1.28-1.52-0.75-0.9-1.56 0.49-2.15 0.32-1.94-0.55 0.18-0.69-0.95-2.49-2.5-4-1.54-1.51-2.81-3.43-2.81-4.25 0-0.82-0.79-1.51-1.75-1.53-1.56-0.03-1.53-0.2 0.25-1.52 1.77-1.32 1.8-1.48 0.25-1.47-0.96 0.01-1.59-0.54-1.39-1.23q0.37-1.25-2.25-0.87c-1.45 0.21-3.05-0.23-3.61-0.99-0.78-1.07-0.68-1.15 0.45-0.38 1.1 0.75 1.32 0.62 0.92-0.51-0.3-0.82-1.2-1.63-2.01-1.8-1.1-0.22-1.63 1.16-2.13 5.5zm-141.08 18.8c-0.32 7.01-0.16 12.52 0.4 13.25 0.71 0.94 1.51 0.98 3.2 0.16 1.24-0.59 2.7-0.88 3.25-0.62 0.55 0.25 1.11 1.63 1.25 3.08 0.14 1.45 0.93 3.64 1.76 4.88 0.82 1.24 1.16 2.66 0.75 3.16-0.44 0.52-0.02 0.63 0.99 0.25 0.96-0.36 1.98-0.21 2.25 0.34 0.28 0.55-0.06 1.19-0.75 1.43-0.75 0.26-0.44 0.67 0.75 1.03 1.16 0.34 2.37 1.95 2.89 3.81 0.49 1.78 1.05 3.57 1.25 3.98 0.2 0.41 0.36 1.43 0.36 2.25 0 0.82 1.01 1.93 2.25 2.47 1.24 0.53 3.04 1.54 4 2.25 1.21 0.88 1.53 1.9 1.02 3.28-0.45 1.23-0.35 1.75 0.25 1.35 0.61-0.41 0.95 1.69 0.89 5.5-0.04 3.38 0.41 7.14 1 8.36 0.6 1.22 1.43 2 1.84 1.75 0.41-0.25 0.68-0.12 0.59 0.29-0.08 0.41 0.3 1.87 0.86 3.25 0.85 2.11 1.12 1.24 1.67-5.5 0.37-4.4 1.1-15.65 1.62-25 0.53-9.35 1.16-21.5 1.41-27 0.24-5.5 0.26-8.76 0.02-7.25-0.23 1.51-0.98 2.79-1.67 2.84-0.69 0.04-2.71 0.27-4.5 0.5-1.79 0.22-3.25-0.04-3.25-0.59q0-1-3.25 0c-1.79 0.55-3.81 1-4.5 1-0.69 0-1.25-0.68-1.25-1.5q0-1.5-2-1c-1.23 0.31-2.19-0.08-2.5-1-0.27-0.82-1.17-1.28-2-1-0.86 0.29-1.93-0.36-2.5-1.5-0.55-1.1-1.67-2-2.5-2-0.82 0-1.73-0.79-2.02-1.75-0.28-0.96-1.13-2.88-1.89-4.25-1.25-2.27-1.43-1.4-1.94 9.5zm268.43-2c-0.08 2.32-0.33 2.66-1.08 1.5-0.76-1.17-0.97-0.89-0.98 1.25-0.01 1.78 0.51 2.75 1.48 2.75 0.83 0 1.64-0.79 1.82-1.75 0.17-0.96-0.01-2.88-0.4-4.25-0.7-2.42-0.72-2.41-0.84 0.5zm-51.69 8.64l-4.11 0.93c-0.83 11.18-0.89 14.54-0.68 14.68 0.22 0.14 1.04-0.09 1.83-0.5 0.78-0.41 1.46-1.09 1.5-1.5 0.04-0.41 0.07-2.55 0.07-4.75 0-3.84 0.12-3.99 3.01-3.75 1.96 0.16 2.84 0.69 2.5 1.5-0.28 0.69-0.06 1.25 0.49 1.25 0.55 0 1-0.68 1-1.5 0-0.82-0.79-1.94-1.75-2.47-1.55-0.86-1.49-0.97 0.5-1 1.24-0.02 2.48-0.71 2.75-1.53 0.28-0.82 0.5-1.72 0.5-2 0-0.28-0.79-0.45-1.75-0.39-0.96 0.06-3.6 0.52-5.86 1.03zm-101.38 18.36c-0.13 0.55-0.17 1.9-0.09 3 0.13 1.85 0.04 1.87-1.14 0.29-0.7-0.94-1.62-1.73-2.03-1.75-0.41-0.02-0.52 0.41-0.25 0.96 0.28 0.55-0.06 0.99-0.75 0.98-0.76-0.01-0.59 0.48 0.44 1.25 1.57 1.18 1.57 1.38 0.04 2.77-1.48 1.35-1.58 1.32-0.94-0.25 0.46-1.14 0.19-1.92-0.79-2.25-0.82-0.28-1.72-0.05-2 0.5-0.27 0.55-0.95 0.78-1.5 0.5-0.55-0.28-1-0.05-1 0.5 0 0.57 0.97 0.71 2.25 0.33 1.94-0.59 2.13-0.42 1.39 1.25-0.48 1.05-1.04 2.71-1.25 3.67-0.22 0.96-0.73 1.76-1.14 1.78-0.41 0.01-1.12-0.32-1.58-0.75-0.46-0.43-1.25-0.89-1.75-1.03-0.51-0.14-1.26-0.24-1.67-0.23-0.41 0.01 0.15-0.67 1.25-1.51l2-1.51c-3.1 1.05-4.31 1.84-4.68 2.43-0.38 0.59-0.26 1.86 0.25 2.82 0.59 1.11 0.57 1.93-0.07 2.25-0.55 0.27-1.22 0.05-1.5-0.5-0.27-0.55-0.95-1-1.5-1-0.55 0-0.77 0.9-0.5 2 0.28 1.1 0.05 2-0.5 2-0.55 0-1.11-0.53-1.25-1.19-0.14-0.65-0.7-0.9-1.25-0.56-0.55 0.34-0.84 1.89-0.64 3.44 0.26 2.05 0.57 2.4 1.12 1.31 0.58-1.13 0.92-1.2 1.4-0.25 0.34 0.69 0.39 1.59 0.11 2-0.28 0.41-1.63 0.19-3-0.5-2.28-1.14-2.45-1.08-1.99 0.75 0.28 1.1 0.05 2-0.5 2-0.55 0-1.3-0.79-1.66-1.75-0.36-0.96-0.58-2.31-0.5-3 0.09-0.69-1.19-1.7-2.84-2.25q-3-1-3 0c0 0.55-0.45 0.77-1 0.5-0.6-0.3-1.01 1.59-1.04 4.75-0.02 2.89-0.67 13.35-1.46 23.25-1.25 15.82-1.25 18.18 0.05 19.5 1.3 1.32 1.47 0.59 1.46-6.25-0.01-6.68 0.27-7.92 1.99-9 1.11-0.69 2.01-2.04 2-3 0-0.98 0.77-1.77 1.75-1.79 1.57-0.04 1.6 0.13 0.25 1.69-0.86 0.99-0.96 1.44-0.25 1.04 0.7-0.39 1.26-0.14 1.27 0.56q0.01 1.25 0.98-0.25c0.53-0.82 0.98-2.74 0.98-4.25 0.01-1.73 0.67-2.95 1.77-3.3 0.96-0.3 2.2-0.49 2.75-0.42 0.55 0.08 1.23-0.35 1.5-0.96 0.28-0.6 1.63-1.25 3-1.44 1.38-0.18 3.72-0.97 5.21-1.73 1.49-0.77 2.5-1.74 2.25-2.15-0.25-0.41 0.1-0.67 0.79-0.58 0.69 0.1 2.48-0.46 3.99-1.25 1.5-0.78 2.97-2.21 3.25-3.17 0.28-0.96 0.85-1.58 1.26-1.37 0.41 0.21 0.77-0.13 0.79-0.75 0.02-0.62 0.38-4.06 0.79-7.63 0.42-3.57 0.35-9.88-0.16-14-0.5-4.13-1.02-7.05-1.16-6.5zm206.49 42.56c-2.37 0.56-2.53 0.73-0.75 0.82 1.55 0.08 2.4 0.89 2.75 2.62 0.37 1.87 0.94 2.34 2.25 1.87 1.49-0.53 1.53-0.74 0.25-1.39-1.23-0.63-1.09-0.97 0.75-1.87 1.24-0.61 2.19-1.5 2.13-1.99-0.07-0.48-1.09-0.84-2.25-0.81-1.17 0.03-3.48 0.37-5.13 0.75zm-80.59 13.44c-1.93 1.93-4.16 3.51-4.96 3.53-1 0.01-0.67-0.81 1.05-2.65l2.5-2.67c-4.26 2.55-5.48 2.95-5.46 2.54 0.03-0.41-0.73-0.07-1.68 0.75-1.58 1.37-1.67 1.32-0.97-0.5l0.77-2c-3.2 3.1-3.91 4.34-3.64 4.75 0.26 0.41-0.22 0.75-1.08 0.75-0.86 0-2.88 1.57-4.5 3.5-1.62 1.93-2.94 4.18-2.94 5 0 0.82-0.22 2.18-0.5 3-0.3 0.89 0.11 1.5 1 1.5 0.83 0 1.69 1.01 1.93 2.25 0.23 1.24 0.06 3.15-0.38 4.25-0.45 1.1-0.86 2.34-0.93 2.75-0.07 0.41-0.12 1.2-0.12 1.75 0 0.55-1.22 2.46-2.71 4.25-2.15 2.57-2.24 2.83-0.42 1.25 1.27-1.1 3.16-3.46 4.22-5.25 1.05-1.79 1.86-3.81 1.79-4.5-0.06-0.69-0.05-3.5 0.03-6.25 0.12-3.82 0.38-4.59 1.12-3.25 0.53 0.96 1.76 1.74 2.72 1.72 0.96-0.01 2.61-0.8 3.67-1.75 1.82-1.63 1.88-1.63 1.25 0.03q-0.65 1.73 0.58 1.41c0.69-0.18 2.15-1.8 3.25-3.59 1.73-2.83 1.8-3.38 0.5-4.11-0.82-0.47-1.27-0.99-1-1.15 0.28-0.17 1.33-0.76 2.34-1.31 1.01-0.55 2.92-2.91 4.24-5.25 1.32-2.34 2.28-4.25 2.12-4.25-0.16 0-1.87 1.57-3.79 3.5zm-107.27 6.97c-0.7 1.91-1.36 3.71-1.46 4-0.1 0.29 0.27 0.53 0.82 0.53 0.55 0 1.23-1.13 1.5-2.5 0.39-1.93 1.04-2.44 2.91-2.25 1.33 0.14 2.11 0.69 1.75 1.24-0.39 0.58-0.14 0.68 0.59 0.25 0.69-0.41 1.25-1.19 1.25-1.74 0-0.55-1.12-1-2.5-1-1.37 0-2.33-0.45-2.12-1 0.21-0.55-0.04-1-0.54-1-0.51 0-1.5 1.56-2.2 3.47zm109.86 3.93c-2.39 2.46-3.3 4.32-3.31 6.75l-0.01 3.35c1.38-4.65 2.8-7.16 4.05-8.58 1.25-1.42 3.17-3.09 4.27-3.72 1.86-1.06 1.87-1.14 0.15-1.17-1.02-0.02-3.33 1.5-5.15 3.37zm51.54 25.85c-0.5 1.24-0.94 1.69-0.98 1-0.03-0.69-0.73-1.48-1.56-1.75-0.82-0.27-1.27-0.05-1 0.5 0.27 0.55 0.16 1.76-0.25 2.68-0.64 1.43-0.48 1.5 1 0.5 0.96-0.65 1.76-0.84 1.78-0.43 0.02 0.41 0.61 0.06 1.31-0.78 0.71-0.85 2.16-2.07 3.22-2.72 1.86-1.14 1.84-1.19-0.34-1.22-1.44-0.02-2.61 0.8-3.18 2.22zm-317.96 7.1c-3.4 0.89-4.57 1.73-5.07 3.65-0.36 1.37-0.4 4.44-0.08 6.81 0.53 3.99 0.75 4.27 3.07 3.7 1.38-0.33 4.41-1.37 6.75-2.3 2.33-0.94 4.24-2.05 4.25-2.46 0-0.41-1.01-0.49-2.25-0.18-2.21 0.57-2.21 0.55-0.25-0.93 1.98-1.49 1.98-1.51-0.25-2.07-1.24-0.31-2.25-1.02-2.25-1.57 0-0.55 0.45-1.23 1-1.5 0.55-0.27 1.18 0.06 1.4 0.75 0.22 0.69 0.27-0.1 0.12-1.75-0.15-1.65-0.66-3.07-1.14-3.15-0.49-0.08-2.87 0.37-5.3 1zm141.63 11.4c-0.27 1.51-0.32 3.31-0.1 4 0.21 0.69 1.74 1.25 3.39 1.25 2.83 0 3-0.22 3-4 0-3.75-0.18-4-2.9-4-2.38 0-2.99 0.49-3.39 2.75zm180.39 16.74c-1.87 0.78-3.32 1.55-3.23 1.71 0.09 0.17 1.4 0.2 2.9 0.09 1.5-0.12 2.06-0.01 1.23 0.25-0.82 0.26-1.82 2.16-2.21 4.22-0.48 2.54-0.32 3.96 0.5 4.43 0.66 0.39 1.44 0.47 1.71 0.2 0.27-0.28-0.17-0.92-1-1.43-1.28-0.79-1.24-0.93 0.25-0.94 0.96-0.01 1.8 0.54 1.87 1.23 0.06 0.69 0.06 1.59 0 2-0.07 0.41 0.56 0.75 1.38 0.75 0.83 0 1.7-0.79 1.94-1.75 0.25-0.96 0.52-3.55 0.6-5.75 0.09-2.2 0.11-4.56 0.06-5.25-0.06-0.69-0.66-1.23-1.35-1.21-0.69 0.02-2.78 0.67-4.65 1.45zm-66.02 5.26c-0.06 2.29-0.67 3.47-2.08 4-1.38 0.52-2.32 2.23-3 5.5-0.55 2.61-0.99 5.76-0.97 7 0.01 1.24-0.32 2.55-0.75 2.92-0.43 0.36-2.8 0.02-5.28-0.77-2.48-0.78-4.84-1.42-5.25-1.41-0.41 0-0.75 2.94-0.75 6.51 0 5.51 0.27 6.5 1.75 6.53 0.96 0.01 1.41-0.21 1-0.5-0.41-0.29-0.07-1.21 0.75-2.03 0.83-0.82 2.02-1.39 2.66-1.25 0.64 0.14 1.45-0.88 1.8-2.25 0.35-1.38 1.28-2.5 2.09-2.5 0.8 0 1.29 0.68 1.09 1.5-0.27 1.15-0.03 1.24 1 0.39 0.75-0.6 2.37-1.39 3.61-1.75 1.48-0.42 2.25-0.21 2.25 0.61 0 0.73 1.15 1.2 2.75 1.13 1.51-0.07 3.31-0.18 4-0.25 0.72-0.07 1.25-1.52 1.26-3.38 0-1.79 0.5-5.05 1.11-7.25 0.6-2.2 1.23-4.68 1.4-5.5 0.16-0.82 0.56-2.74 0.89-4.25 0.44-2.04 0.2-2.75-0.91-2.75-0.82 0-1.61-0.4-1.75-0.88-0.14-0.48-1.82-1.23-3.75-1.67-2.59-0.59-3.3-0.49-2.75 0.38 0.41 0.64 0.3 1.17-0.25 1.17-0.55 0-1.19-0.56-1.42-1.25-0.23-0.69-0.46 0.21-0.5 2zm57.37 11.99c-1.11 1-1.79 1.19-1.66 0.47 0.11-0.66-0.24-1.21-0.79-1.21-0.55 0-1 0.9-1 2 0 1.1 0.34 2.02 0.75 2.04 0.41 0.03 1.88-0.84 3.25-1.91 1.38-1.08 2.24-2.21 1.92-2.52-0.32-0.31-1.43 0.2-2.47 1.13zm-111.56 5.26c0.44 1.93 0.41 4.62-0.07 6-0.49 1.37-0.71 2.95-0.49 3.5 0.23 0.55 1.93 1.11 3.79 1.25 1.86 0.14 5.93 0.36 9.05 0.5l5.67 0.25 0.66-13.5c-6.98-0.01-11.35-0.35-14.22-0.76l-5.21-0.74zm-36.21 13.75c-0.36 0.41-0.21 1.31 0.33 2 0.65 0.81 0.65 1.86 0.02 3-0.92 1.67-0.97 1.67-1 0-0.01-0.96-0.7-1.98-1.53-2.25-0.96-0.32-1.67 0.3-1.99 1.75-0.27 1.24-1.13 5.62-1.91 9.75-0.78 4.12-1.71 9.52-2.07 12-0.37 2.48-0.83 6.07-1.04 8-0.21 1.93-0.59 6.43-0.84 10-0.4 5.57-0.32 6 0.55 3 0.56-1.93 1.28-4.18 1.61-5 0.35-0.89 0.72-0.18 0.9 1.75 0.16 1.79 0.74 3.25 1.29 3.25 0.55 0 0.78-0.68 0.5-1.5-0.33-0.99 0.61-1.97 2.75-2.89 1.79-0.76 3.63-2.22 4.09-3.25 0.46-1.02 1.69-5.24 2.74-9.36 1.04-4.13 1.68-7.73 1.42-8-0.27-0.27-0.1-0.95 0.36-1.5 0.46-0.55 1.38-3.02 2.04-5.5 0.66-2.48 1.38-5.85 1.59-7.5 0.2-1.65 0.44-3 0.52-3 0.08 0 0.31-1.13 0.52-2.5l0.37-2.5c-2.19 4.21-2.91 4.49-5.4 3.94-1.65-0.37-3.56-1.07-4.25-1.56-0.68-0.48-1.04-1.33-0.78-1.88 0.25-0.55 0.33-1 0.16-1-0.16 0-0.59 0.34-0.95 0.75zm-198.03 27.41c-0.14 2.7-0.26 2.77-2.65 1.5-2.13-1.14-2.71-1.11-4 0.23-1.35 1.41-1.52 1.39-1.75-0.17-0.13-0.95-0.58-1.75-1-1.79-0.41-0.05-1.76-0.27-3-0.5-1.79-0.34-2.37 0.13-2.85 2.32-0.33 1.51-1.2 5.23-1.92 8.25-0.73 3.02-1.03 6.18-0.67 7 0.5 1.15 0.31 1.27-0.8 0.5-1.21-0.84-1.26-0.67-0.32 1 0.88 1.56 0.81 2.22-0.32 3-0.79 0.55-2.55 4.04-3.9 7.75-1.36 3.71-2.13 6.95-1.72 7.2 0.42 0.25 1.32 0.25 2 0 0.69-0.25 1.25 0 1.25 0.55 0 0.55-0.56 0.99-1.25 0.97-0.68-0.01-1.02 0.22-0.75 0.52 0.28 0.29 1.74 0.08 3.25-0.48 2.23-0.82 2.75-0.73 2.75 0.49 0 0.9-0.49 1.22-1.25 0.81-0.71-0.4-0.6 0.05 0.25 1.04 0.83 0.96 2.07 1.72 2.75 1.69 0.69-0.02 1.82 0.59 2.5 1.35 1.03 1.15 1.77-0.05 4.19-6.75 1.61-4.48 2.96-8.7 3-9.39 0.03-0.69 0.29-1.24 0.56-1.23 0.28 0.01 0.83-1.45 1.23-3.25 0.4-1.8 2.24-8.22 4.08-14.27 2.67-8.75 3.06-11.02 1.92-11.08-0.9-0.06-1.49 0.97-1.58 2.74zm109.82 10.67c-1 1-1.75 2.35-1.65 3 0.11 0.72-0.99 1.07-2.88 0.92-1.69-0.14-3.43 0.2-3.88 0.75-0.45 0.55-1.09 4.04-1.43 7.75-0.39 4.14-0.24 6.94 0.37 7.25 0.55 0.27 1 1.85 1 3.5 0 1.91 0.46 2.88 1.25 2.66 0.69-0.18 1.7-1.77 2.25-3.52 0.55-1.76 1.34-3.18 1.75-3.17 0.42 0.02 0.77 0.82 0.79 1.78 0.02 1.56 0.19 1.53 1.51-0.25 0.82-1.1 2.16-4.36 2.97-7.25 0.82-2.89 1.23-6.26 0.92-7.5-0.37-1.47 0.23-3.29 1.72-5.25 1.41-1.84 1.61-2.42 0.52-1.5-1.27 1.08-1.75 1.15-1.72 0.25 0.02-0.69-0.34-1.25-0.81-1.25-0.47 0-1.67 0.82-2.68 1.83zm-22.31 4.42c-0.09 0.96-0.72 1.7-1.41 1.63-0.68-0.06-2.03-0.06-3 0-1.41 0.1-1.75 1.07-1.75 5.12 0 4.67-0.13 4.93-2 4-1.1-0.55-2.45-0.77-3-0.5-0.55 0.27-1 0.95-1 1.5 0 0.55 1.24 2.39 2.75 4.09 2.35 2.64 3.33 3.04 6.72 2.75 3.12-0.27 4.3-0.93 5.5-3.12 1.36-2.46 1.37-2.88 0.03-3.71-0.94-0.59-1.72-3.25-2.09-7.22-0.33-3.46-0.67-5.5-0.75-4.54z"/>
		<path id="Path 6" fill-rule="evenodd" class="s2" d="m508.75 69c0.14 0 0.03 0.9-0.24 2q-0.51 2 0.99 2c0.82 0 1.73 0.45 2 1 0.27 0.55-0.24 0.89-1.15 0.75-0.9-0.14-1.73 0.2-1.83 0.75q-0.19 1 0.26 0c0.25-0.58 0.7-0.47 1.08 0.27 0.35 0.7 1.32 1.39 2.14 1.54 0.83 0.15 2.17 0.7 3 1.23 0.83 0.53 2.4 2.05 3.5 3.38 1.1 1.33 1.44 2.12 0.75 1.75-0.69-0.37-1.25-0.45-1.25-0.17 0 0.28 0.45 1.63 1 3 0.85 2.12 1.25 2.31 2.65 1.25 1.44-1.09 1.57-0.97 1 1-0.37 1.27-0.21 2.25 0.35 2.25 0.55 0 0.99-0.79 0.98-1.75-0.01-1.4 0.24-1.5 1.25-0.5 1.02 1 0.88 1.55-0.73 2.82-1.1 0.87-1.44 1.32-0.75 1 0.69-0.31 1.25-0.12 1.25 0.43 0 0.55-0.79 0.86-1.75 0.69-1.47-0.27-1.59 0.05-0.75 1.92 0.64 1.42 1.23 1.81 1.62 1.06q0.63-1.17 1.25 0.58 0.63 1.75-0.87 1.75c-1.11 0-1.4 0.86-1.11 3.25 0.21 1.79 0 3.7-0.46 4.25-0.47 0.55-0.93 2.13-1.03 3.5-0.09 1.38 0.2 3.4 0.65 4.5 0.75 1.82 0.67 1.87-0.91 0.5-1.24-1.08-1.72-1.15-1.68-0.25 0.02 0.69 0.83 1.73 1.79 2.31q1.74 1.05 0.25 0.67c-0.83-0.2-1.99 0.11-2.59 0.7-0.59 0.59-0.93 2.08-0.75 3.32 0.19 1.24-0.22 2.95-0.91 3.8-0.99 1.23-1.39 1.29-1.94 0.25-0.39-0.71-1.06-0.96-1.5-0.54-0.45 0.42 0.05 1.32 1.09 2 1.05 0.68 1.61 1.8 1.25 2.49-0.42 0.81-0.12 1.07 0.85 0.75 0.83-0.28 1.5-0.05 1.5 0.5 0 0.55-0.45 0.78-1 0.5-0.55-0.28-1.67 0.4-2.5 1.5-0.83 1.1-1.84 1.82-2.25 1.6-0.41-0.22-0.75 1.05-0.75 2.84 0 2.74-0.3 3.15-1.94 2.65-1.12-0.34-2.93-2.83-4.25-5.84-1.27-2.89-2.76-5.25-3.31-5.25-0.55 0-1.23 0.45-1.5 1-0.27 0.55-0.95 0.78-1.5 0.5-0.55-0.28-0.77 0.06-0.48 0.75 0.28 0.69-1.55 3.5-4.07 6.25-2.52 2.75-4.33 4.44-4.02 3.75 0.32-0.69 0.12-1.47-0.43-1.75-0.55-0.28-0.71-1.06-0.35-1.75 0.51-1 0.37-1-0.7 0-0.74 0.69-1.82 1.24-2.4 1.23q-1.04-0.01 0.04-0.75c0.78-0.52 0.72-1.59-0.2-3.73-0.72-1.65-1.32-2.44-1.34-1.75-0.03 0.69-0.5 1.25-1.05 1.25-0.55 0-0.77-0.68-0.5-1.5 0.28-0.83-0.06-1.45-0.75-1.38-0.69 0.06-1.81 0.06-2.5 0-0.69-0.07-1.25-0.8-1.25-1.62 0-0.92-0.47-1.21-1.2-0.75q-1.19 0.74-0.67-0.75c0.29-0.82 1.62-2.1 5.37-4.15l-2.75 0.57c-2.03 0.43-2.75 0.19-2.75-0.92 0-0.82-0.56-1.69-1.25-1.92-0.93-0.32-0.87-0.71 0.25-1.52 1.3-0.95 1.23-1.24-0.5-2.19-1.49-0.82-1.66-1.26-0.67-1.73 1.07-0.52 1.03-0.98-0.25-2.39-1.43-1.59-1.43-1.75-0.01-1.75 0.87 0 2.33-0.75 3.25-1.66 1.57-1.55 1.53-1.61-0.57-1-1.37 0.4-2.54 0.17-2.99-0.59q-0.73-1.24 0.5-0.5c0.74 0.45 1.63 0.04 2.21-1 0.53-0.96 0.98-1.19 1-0.5 0.02 0.69 0.48 1.25 1.03 1.25 0.55 0 0.77-0.45 0.5-1-0.27-0.55-0.05-1 0.5-1 0.55 0 0.77-0.79 0.5-1.75-0.41-1.41-0.23-1.36 0.9 0.25 1.15 1.64 1.5 1.73 1.93 0.5 0.28-0.82 0.33-2.51 0.09-3.75-0.36-1.91-0.03-2.21 2.19-2q2.61 0.25 3.75-1.75c0.63-1.1 1.59-2.29 2.14-2.63 0.55-0.35 4.37-6.32 8.49-13.25 4.12-6.94 7.61-12.62 7.76-12.62zm-157.12 7.78c1.27 1.59 1.33 1.57 0.78-0.28-0.48-1.6-0.39-1.7 0.44-0.51 0.57 0.82 0.84 2.51 0.6 3.75-0.25 1.24 0 2.26 0.55 2.26 0.55 0 0.95-0.34 0.88-0.75-0.06-0.41 0.02-1.34 0.18-2.06 0.16-0.72 0.67-1.06 1.12-0.75 0.45 0.31 0.71 0 0.57-0.69-0.14-0.71 0.93-1.36 2.5-1.5 2.04-0.19 2.99 0.33 3.69 2 0.72 1.74 0.95 1.85 1 0.5 0.03-0.96 0.51-1.75 1.06-1.75 0.55 0 0.77 0.45 0.5 1-0.27 0.55-0.27 1.68 0 2.5 0.27 0.82 1.29 1.49 2.25 1.47 0.96-0.01 2.88 1.1 6.75 4.96l-2.5 2.66c-1.37 1.46-3.49 3.73-4.7 5.03-1.22 1.31-1.89 2.39-1.5 2.4 0.38 0.02 0.2 2.38-0.41 5.25-0.61 2.88-1.41 9.73-1.78 15.23-0.37 5.5-0.92 12.7-1.23 16-0.45 4.92-0.9 6.04-2.47 6.25-1.05 0.14-1.68-0.2-1.41-0.75 0.27-0.55 0.05-1-0.5-1-0.55 0-1 0.45-1 1 0 0.55-0.9 1.22-2 1.5-1.45 0.36-1.86 0.09-1.5-1 0.27-0.82 0.95-1.28 1.5-1 0.55 0.28 1 0.05 1-0.5 0-0.55-0.45-1.22-1-1.5-0.55-0.28-1.23 0.18-1.5 1-0.27 0.82-0.95 1.5-1.5 1.5-0.55 0-0.66-0.53-0.25-1.18 0.54-0.85 0.11-0.99-1.5-0.5-1.56 0.47-2.4 0.22-2.75-0.82-0.31-0.92-1.27-1.31-2.5-1-1.1 0.28-2.33-0.06-2.74-0.75q-0.73-1.24 0.5-0.5c0.68 0.41 1.24 0.3 1.24-0.25 0-0.55 1.13-0.32 2.5 0.5 1.38 0.82 2.5 1.05 2.5 0.5 0-0.55-0.79-1.28-1.75-1.63-1.52-0.54-1.55-0.75-0.25-1.58 1.12-0.72 0.93-0.82-0.75-0.38q-2.26 0.6-1.94-0.66c0.18-0.69-0.95-2.49-2.5-4-1.54-1.51-2.67-3.54-2.5-4.5 0.23-1.28-0.24-1.66-1.75-1.43-2.05 0.33-2.05 0.32-0.06-1.26 1.78-1.42 1.81-1.59 0.25-1.58-1.11 0.01-1.57-0.52-1.25-1.48 0.36-1.08 0.06-1.29-1.04-0.75-1.05 0.51-2.02 0.02-3-1.5-0.8-1.24-2.14-2.25-2.96-2.25-1.11 0-1.35-0.71-0.91-2.75 0.32-1.51 1.18-5.22 1.9-8.25 0.72-3.03 2.03-7.19 2.91-9.25 1.08-2.53 2.09-3.59 3.1-3.25q1.5 0.5 1.5-1.5c0-1.1-0.53-2-1.17-2-0.64 0-0.86-0.22-0.5-0.5 0.37-0.28 1.57-0.05 2.67 0.5 1.1 0.55 1.77 1.45 1.5 2-0.27 0.55-0.08 2.01 0.44 3.25 0.79 1.91 0.94 1.61 1-2 0.03-2.34 0.51-4.25 1.06-4.25 0.57 0 0.78 1.4 0.48 3.25q-0.53 3.28 0.39 1.75c0.57-0.94 1.41-1.19 2.27-0.68 0.75 0.46 0.65 0.23-0.23-0.5-0.87-0.72-1.43-1.88-1.25-2.57 0.19-0.69 1.02-1.25 1.84-1.25 0.82 0 1.32 0.34 1.1 0.75-0.23 0.41 0.22 0.75 1 0.75 0.77 0 1.4-0.34 1.4-0.75 0-0.41-0.45-0.75-1-0.75-0.55 0-1-0.9-1-2 0-1.11 0.67-2 1.5-2 0.82 0 1.5-0.45 1.5-1 0-0.55-0.68-0.78-1.5-0.5-0.82 0.28-1.59 0.14-1.7-0.3-0.11-0.44 0.4-1.32 1.13-1.97 1.02-0.9 1.63-0.77 2.7 0.55zm141.07 13.47c0.17 0.96-0.82 3.1-2.2 4.75-2.17 2.6-2.5 2.73-2.5 1 0-1.1-0.45-1.78-1-1.5-0.59 0.3-0.72-0.21-0.32-1.25 0.43-1.09 0.81-1.28 1-0.5 0.18 0.69 1 1.25 1.82 1.25 0.82 0 1.82-1.24 2.2-2.75 0.48-1.87 0.8-2.19 1-1zm-151.88 39.75c0.46 0 0.57 1.31 0.25 2.91-0.32 1.63-0.06 3.51 0.59 4.25 0.91 1.04 0.85 1.34-0.25 1.34-0.99 0-1.41-1.25-1.41-4.25 0-2.34 0.37-4.25 0.82-4.25zm-69.82 1c0.55 0 1.23 0.45 1.5 1 0.27 0.55 1.05 0.66 1.73 0.25 0.9-0.55 1.01-0.22 0.39 1.25-0.67 1.62-0.53 1.86 0.78 1.25 0.9-0.42 1.6-0.31 1.6 0.25 0 0.55 0.68 0.78 1.5 0.5 0.82-0.28 1.5-0.05 1.5 0.5 0 0.55-0.56 1.19-1.25 1.42-0.69 0.23-0.13 0.45 1.25 0.48 1.37 0.04 3.06 0.64 3.73 1.33 0.68 0.7 1.58 0.94 2 0.54 0.42-0.4 0.09-1.46-0.73-2.35-1.33-1.45-1.33-1.59 0-1.28 0.82 0.2 1.78 1.04 2.11 1.86 0.34 0.82 0.2 1.72-0.31 2-0.53 0.28-0.26 2.11 0.63 4.25q1.57 3.76 2.81 3 1.23-0.74 0.5 0.5c-0.41 0.69-0.29 1.47 0.26 1.75 0.55 0.28 0.67 1.06 0.26 1.75q-0.73 1.24 0.5 0.5 1.25-0.77 1.32 1.5c0.04 1.24 0.27 1.69 0.5 1 0.34-1 0.74-1 2.01 0 1.35 1.06 1.5 0.98 1-0.5-0.32-0.96-0.48-1.76-0.34-1.78 0.14-0.01 1.37 1.21 2.75 2.72 1.37 1.51 1.69 2.09 0.71 1.28-1.61-1.31-1.79-1.28-1.75 0.28 0.02 0.96 0.6 1.9 1.29 2.09 1 0.27 1 0.67 0 2-0.69 0.91-1.02 2.34-0.75 3.16 0.27 0.82-0.06 1.49-0.75 1.48-0.76-0.01-0.59 0.48 0.44 1.25 1.57 1.18 1.57 1.38 0.04 2.77-1.48 1.35-1.58 1.32-0.94-0.25 0.46-1.14 0.19-1.92-0.79-2.25-0.82-0.28-1.73-0.05-2 0.5-0.27 0.55-0.95 0.78-1.5 0.5-0.55-0.28-0.98-0.16-0.96 0.25 0.02 0.41 0.81 1.31 1.75 2 1.6 1.17 1.58 1.35-0.29 2.69-1.1 0.8-2.68 1.28-3.5 1.08-0.82-0.2-1.73-0.39-2-0.43-0.27-0.03 0.4-0.74 3.5-3.09l-2 0.67c-1.1 0.38-2.31 1.17-2.68 1.76-0.38 0.59-0.26 1.86 0.25 2.82 0.59 1.11 0.57 1.93-0.07 2.25-0.55 0.27-1.23 0.05-1.5-0.5-0.27-0.55-0.95-1-1.5-1-0.55 0-0.77 0.9-0.5 2 0.27 1.1 0.05 2-0.5 2-0.55 0-1-0.45-1-1 0-0.55-0.56-0.83-1.25-0.63-0.69 0.21-1.14 0.89-1 1.5 0.14 0.62-0.2 1.13-0.75 1.13-0.55 0-0.44 0.63 0.25 1.39 0.9 1.01 1.45 1.07 1.98 0.25 0.47-0.73 0.74-0.51 0.75 0.61 0.01 0.96-0.21 1.75-0.48 1.75-0.27 0-3.09-1.36-6.25-3.03-4.31-2.27-5.91-2.71-6.38-1.75-0.49 1.01-0.75 1.02-1.25 0.03-0.34-0.69 0.05-11.04 0.88-23 0.82-11.96 1.5-22.76 1.5-24 0-1.24 0.45-2.25 1-2.25zm33.12 26c0.52 0 0.71 2.53 0.44 5.75-0.27 3.16-0.58 6.43-0.69 7.25-0.11 0.82-0.46-0.97-0.79-4-0.32-3.03-0.43-6.29-0.24-7.25 0.19-0.96 0.77-1.75 1.28-1.75zm127.55 49.58c0.18 0.23-0.91 2.4-2.42 4.83-1.51 2.42-3.99 5.12-5.5 6-1.51 0.87-2.75 1.36-2.75 1.09 0-0.27 2.33-3.16 5.17-6.42 2.84-3.26 5.31-5.73 5.5-5.5zm-360.25 25.4c0.59 0.41 1.75 1.04 2.58 1.4 0.82 0.35 0.49 0.41-0.75 0.13-1.68-0.38-2.12-0.13-1.75 0.99q0.51 1.49 2.25 0.77c1.24-0.52 1.53-0.37 1 0.5-0.41 0.68-1.31 1.23-2 1.24-0.69 0-1.95-0.78-2.81-1.75q-1.57-1.76-0.58-2.9c0.54-0.62 1.47-0.79 2.06-0.38zm6.08 4.02c0.82 0 1.5 0.45 1.5 1 0 0.55-0.68 1.23-1.5 1.5-0.83 0.27-1.5 1.4-1.5 2.5 0 1.1-0.34 2.02-0.75 2.04-0.41 0.03-1.43-0.76-2.25-1.75-1.4-1.67-1.37-1.69 0.34-0.29 1.67 1.36 1.79 1.33 1.25-0.25-0.32-0.96-1.38-1.96-2.34-2.21-0.96-0.26-0.52-0.37 0.98-0.25 1.62 0.12 2.74-0.3 2.75-1.04 0.01-0.69 0.69-1.25 1.52-1.25zm3.75 4.08c0.41-0.04 1.03 0.48 1.37 1.17 0.48 0.95 0.82 0.88 1.42-0.25 0.54-1.03 0.78-0.56 0.76 1.5-0.01 2.85-0.08 2.9-1.38 1-0.9-1.31-1.89-1.74-2.89-1.25-0.84 0.41-1.76 0.3-2.03-0.25-0.28-0.55 0.06-1.19 0.75-1.42 0.69-0.23 1.59-0.46 2-0.5zm104.25 17.08c1.58 0 1.48 0.16-0.5 0.8-1.38 0.44-4.46 1.41-6.86 2.17-2.4 0.75-4.88 1.95-5.5 2.66-0.89 1.02-0.65 1.29 1.11 1.25 1.24-0.02 5.74-0.71 10-1.54 4.26-0.82 8.65-1.47 9.75-1.44 1.1 0.04-1.15 1.18-5 2.54-3.85 1.36-8.91 3.13-11.25 3.94-3.46 1.19-4.7 1.23-6.7 0.21-2.28-1.16-2.35-1.43-1.03-3.75 0.78-1.37 1.09-2.81 0.7-3.2-0.4-0.38 1.98-1.2 5.28-1.81 3.3-0.61 6.45-1.28 7-1.47 0.55-0.2 1.9-0.36 3-0.36z"/>
		<path id="Path 7" class="s3" d="m491.21 402.97l-3.21 5.03c6.3 0.03 6.54-0.23 7.19-4.23 0.38-2.35 0.37-4.62-0.03-5.05-0.41-0.43-2.18 1.48-3.95 4.25z"/>
	</g>
</svg>